<svg width="20" height="20" viewBox="0 0 20 20" fill="none" xmlns="http://www.w3.org/2000/svg">
<path d="M0.734299 17.8062C0.343775 18.1967 0.343775 18.8299 0.734299 19.2204C1.12482 19.6109 1.75799 19.6109 2.14851 19.2204L0.734299 17.8062ZM19.468 1.48668C19.468 0.9344 19.0203 0.486685 18.468 0.486685H9.46803C8.91574 0.486685 8.46803 0.9344 8.46803 1.48668C8.46803 2.03897 8.91574 2.48668 9.46803 2.48668H17.468V10.4867C17.468 11.039 17.9157 11.4867 18.468 11.4867C19.0203 11.4867 19.468 11.039 19.468 10.4867V1.48668ZM2.14851 19.2204L19.1751 2.19379L17.7609 0.779578L0.734299 17.8062L2.14851 19.2204Z" fill="#EBEEF3"/>
</svg>
