<svg width="48" height="58" viewBox="0 0 48 58" fill="none" xmlns="http://www.w3.org/2000/svg">
<path d="M23.5128 57.4032C36.4986 57.4032 47.0257 44.5531 47.0257 28.7016C47.0257 12.8501 36.4986 0 23.5128 0C10.527 0 0 12.8501 0 28.7016C0 44.5531 10.527 57.4032 23.5128 57.4032Z" fill="#262626"/>
<path d="M36.5578 18.8725C35.7525 19.2657 34.7863 19.6589 33.981 19.8555C34.4642 19.8555 34.9473 18.8725 35.2694 18.4794C35.5915 17.8896 35.9136 17.2998 36.0746 16.5135V16.3169H35.9136C34.9473 16.9067 33.981 17.4964 32.8537 17.693C32.6927 17.693 32.6927 17.693 32.6927 17.693C32.5316 17.4964 32.5316 17.4964 32.3706 17.2998C31.8874 16.9067 31.4043 16.5135 30.9211 16.1203C30.277 15.7271 29.4717 15.5306 28.6665 15.7271C27.8613 15.7271 27.2171 16.1203 26.5729 16.5135C25.9287 16.9067 25.2845 17.4964 24.8014 18.2828C24.3182 19.0691 23.9961 19.8555 23.8351 20.8384C23.674 21.8213 23.674 22.6077 23.8351 23.5906C23.8351 23.7872 23.8351 23.7872 23.674 23.7872C19.4868 23.0008 15.9438 21.2316 13.0449 17.2998C12.8839 17.1033 12.8839 17.1033 12.7229 17.2998C11.4345 19.6589 12.0787 23.1974 13.6891 24.9667C13.8502 25.1633 14.1723 25.3599 14.3333 25.753C14.1723 25.753 13.206 25.5565 12.2397 24.9667C12.0787 24.9667 12.0787 24.9667 12.0787 25.1633C12.0787 25.3599 12.0787 25.5565 12.0787 25.9496C12.2397 28.3087 13.6891 30.4711 15.4607 31.2575C15.6217 31.454 15.9438 31.454 16.1048 31.454C15.6217 31.6506 15.2996 31.6506 14.1723 31.454C14.0112 31.454 14.0112 31.454 14.0112 31.6506C14.8165 34.5994 16.749 35.3858 18.1985 35.9755C18.3595 35.9755 18.5205 35.9755 18.8426 35.9755C18.3595 36.7619 16.749 37.5482 15.9438 37.7448C14.4944 38.3346 13.0449 38.5312 11.5955 38.3346C11.4345 38.3346 11.2734 38.3346 11.2734 38.3346V38.5312C11.5955 38.7277 11.9176 38.9243 12.2397 39.1209C13.206 39.7107 14.1723 40.3004 15.1386 40.497C20.4531 42.2663 26.2508 40.8902 30.277 36.1721C33.3369 32.437 34.4642 27.3257 34.4642 22.0179C34.4642 21.8213 34.6252 21.6247 34.7863 21.6247C35.5915 20.8384 36.2357 20.052 36.8799 19.0691C36.5578 19.2657 36.5578 19.0691 36.5578 18.8725Z" fill="white"/>
</svg>
