<svg width="316" height="200" viewBox="0 0 316 200" fill="none" xmlns="http://www.w3.org/2000/svg">
<path d="M309.196 35.6477C304.102 32.6368 298.634 30.3175 292.445 28.9968C291.808 28.8415 291.213 28.6558 290.576 28.5004C289.381 28.1931 288.239 27.7272 287.07 27.646C286.951 27.6088 286.827 27.6358 286.708 27.5986C284.131 27.3619 281.794 26.5887 279.368 25.9403C277.579 25.4473 275.824 25.0521 273.899 25.325C273.571 25.3755 273.181 25.1662 272.819 25.1189C271.888 25.112 271.05 24.9161 270.218 24.6561C270.099 24.6189 270.018 24.6156 269.942 24.5481C268.681 24.045 267.482 23.8018 265.975 23.8993C264.592 23.9699 262.923 24.0606 261.595 23.3619C260.178 23.3346 258.808 23.2128 257.467 22.7064C256.834 22.4869 256.064 22.4867 255.336 22.4562C255.094 22.446 254.889 22.4696 254.689 22.4291C253.154 22.3646 251.651 22.398 250.163 22.2391C247.062 21.9483 243.962 21.6574 240.828 21.2687C240.224 21.2112 239.643 20.8331 239.053 20.5833C237.386 21.7673 235.421 20.9132 233.629 21.0309C233.557 20.8993 233.528 20.7373 233.414 20.6361C233.143 20.4639 232.867 20.3559 232.591 20.2478L232.42 20.3693C232.648 20.5718 232.92 20.7439 233.11 20.9127C230.434 20.929 227.795 20.979 225.118 20.9953C224.833 21.0155 224.548 21.0356 224.263 21.0558C222.17 20.8394 220.116 20.6568 218.049 21.213C214.45 21.0942 210.914 21.7817 207.272 21.6932C206.34 21.6862 205.408 21.6793 204.525 22.1245C204.021 22.3605 203.208 22.3907 202.609 22.2691C201.61 22.0665 200.788 22.2249 199.876 22.5081C199.211 22.7374 198.389 22.8958 197.661 22.8653C196.006 22.7637 194.476 23.1817 192.985 23.6336C192.362 23.8325 191.706 23.9336 191.051 24.0347C189.824 24.1761 188.598 24.3176 187.334 24.4252C187.215 24.3881 187.015 24.3476 186.862 24.2126C184.481 22.3765 185.197 21.442 186.724 19.9307C187.597 19.0671 188.784 18.3453 189.928 17.6538C191.58 16.6622 193.38 15.8696 195.075 14.8476C195.626 14.5171 196.596 14.5578 197.185 14.261C198.362 13.6674 199.86 13.6981 201.009 12.9425C201.987 12.3084 203.456 12.1771 204.696 11.8433C205.394 11.7119 206.093 11.5805 206.753 11.4153C206.9 11.0678 206.999 10.8147 207.189 10.4369C207.783 10.6226 208.331 10.9027 208.939 10.8961C209.667 10.9267 210.413 10.7007 211.149 10.6031C211.805 10.502 212.423 10.3671 213.041 10.2323C214.119 9.89176 214.916 8.96066 216.281 9.14654C216.362 9.14993 216.618 8.96778 216.665 8.87331C216.835 8.20526 217.491 8.10418 218.218 8.13471C219.878 8.17219 221.554 7.40662 223.221 8.47323C223.186 7.82875 223.204 7.57232 223.151 7.18428C225.248 7.33658 227.31 6.8444 229.206 8.11352C229.589 7.29367 229.825 6.82133 230.024 6.31525C231.203 6.26827 232.225 6.15041 233.414 6.52183C234.965 6.94057 236.626 7.52466 238.345 6.72873C238.597 6.61069 239.243 6.63783 239.434 6.80658C240.315 7.51873 241.47 7.24567 242.554 7.38762C243.838 7.57011 245.173 7.04741 246.344 7.67527C246.501 7.74616 246.915 7.63491 247.128 7.48311C247.641 7.11881 248.245 7.17632 248.711 7.4531C249.416 7.80417 250.006 8.05399 250.808 7.6054C251.017 7.51772 251.446 7.76076 251.807 7.80807C252.326 7.92629 252.954 8.20985 253.406 8.13234C255.088 7.84928 256.592 8.36249 258.161 8.5248C258.441 8.56872 258.717 8.67675 259.003 8.65657C263.11 8.47527 267.139 9.38382 271.208 9.16877C271.655 9.15537 272.14 9.17572 272.621 9.26018C274.908 9.58123 277.234 9.93604 279.522 10.2571C282.371 10.666 285.258 11.1087 288.059 11.612C290.941 12.1188 293.724 12.8786 296.508 13.6384C300.404 14.7021 304.267 15.668 307.931 17.14C309.625 17.8219 311.277 18.5342 312.525 19.7762C313.169 20.4141 313.936 21.025 315.252 20.7587C315.36 20.3774 315.469 19.9962 315.535 19.6453C315.845 18.1472 315.913 16.6389 315.98 15.1307C316.013 14.6819 315.964 14.2298 315.792 13.8046C315.553 13.1837 315.066 12.6167 314.248 12.1644C314.052 12.0598 313.819 11.9214 313.581 11.8471C309.37 10.0949 305.191 8.44067 300.696 7.25534C299.82 7.0257 298.983 6.82982 298.146 6.63394C295.672 6.08002 293.241 5.49576 290.725 4.9722C289.288 4.65471 287.753 4.59027 286.278 4.23903C284.841 3.92154 283.319 3.66475 281.831 3.50583C281.227 3.44834 280.666 3.36049 280.1 3.33674C277.85 3.04944 275.605 2.69804 273.356 2.41074C270.141 2.01862 266.964 1.66026 263.74 1.39636C260.031 1.11211 256.317 0.891969 252.637 0.769688C250.455 0.678104 248.258 0.778839 246.067 0.815472C244.16 0.831923 242.216 0.814635 240.343 0.928945C237.78 1.04648 235.171 1.25847 232.642 1.47386C231.99 1.51084 231.363 1.77389 230.741 1.97283C229.615 2.40785 228.427 2.58304 227.177 2.4984C224.843 2.81844 222.505 3.20259 220.171 3.52263C219.843 3.57317 219.363 3.4887 219.091 3.31656C217.777 2.42548 216.604 2.95497 215.431 3.48446C215.136 3.63286 214.799 3.81162 214.5 4.02413C213.65 4.56718 212.691 4.94488 211.578 4.64096C211.021 4.489 210.717 4.76561 210.261 4.90723C210.01 5.02527 209.482 5.03528 209.206 4.92725C208.692 4.74493 208.196 4.30617 207.646 4.63671C207.223 4.87619 207.067 5.35193 206.754 5.75676C205.341 5.11873 203.906 5.34785 202.952 6.20806C202.174 6.88273 201.356 6.97702 200.429 6.90596C199.14 6.78758 197.966 6.77046 197.084 7.76228C196.596 8.35265 195.716 8.18711 194.984 8.22069C193.724 8.26428 192.502 8.34162 191.739 9.37058C191.516 9.65059 190.979 9.78882 190.561 9.96419C188.927 10.6994 187.06 11.2962 185.655 12.2339C182.85 14.0452 180.116 15.9882 179.647 19.1193C179.545 19.9831 179.243 20.8063 179.54 21.7512C180.167 23.7387 178.934 25.1016 176.445 25.8974C174.782 26.4706 173.191 27.1755 171.423 27.5193C171.176 27.5732 170.83 27.8802 170.863 27.978C171.236 28.9904 169.867 28.8686 169.507 29.3679C169.052 30.0561 168.248 29.9581 167.549 30.0895C166.808 30.2513 166.067 30.4131 165.325 30.5749C164.955 30.6558 164.546 30.703 164.252 30.8514C162.775 31.6575 161.332 32.5614 159.893 33.4013C159.513 33.6104 159.158 34.0456 158.792 34.0624C157.651 34.1431 157.239 34.801 156.746 35.4555C156.295 36.0796 155.702 36.4405 154.68 36.5584C153.492 36.7336 152.709 37.4724 152.283 38.3226C151.711 39.5203 150.824 40.5762 150.052 41.7334C149.151 42.9816 148.437 44.4627 148.65 46.0149C148.893 48.2757 149.136 50.5364 149.422 52.7668C148.881 53.5158 148.007 53.8328 147.133 54.1498C140.269 56.5945 134.005 59.7075 127.956 63.2154C124.742 65.0738 122.532 67.6175 120.28 70.1915C118.464 72.3337 118.336 74.6754 118.166 77.0474C118.076 77.1722 118.033 77.2026 117.986 77.297C116.544 78.7476 114.615 79.6312 112.645 80.5452C110.132 81.6615 107.734 82.8791 105.56 84.3632C105.047 84.7275 104.463 84.9602 103.874 85.257C102.905 85.7629 101.594 85.9651 101.425 87.1798C101.369 87.4025 100.984 87.6757 100.652 87.7903C99.4071 88.1882 98.9049 88.9709 98.8786 89.9022C98.8233 90.6715 98.3823 91.1674 97.6988 91.6531C95.2546 93.5118 94.3949 95.887 94.4151 98.4278C94.3946 99.8416 93.5126 100.833 92.5879 101.856C90.797 102.52 89.1586 103.319 87.31 103.66C84.72 104.162 82.7595 105.494 80.4699 106.33C78.1756 107.231 76.0581 108.492 73.9879 109.659C71.875 110.857 69.881 112.091 67.8443 113.356C67.3363 113.656 66.938 114.122 66.5062 114.49C65.7662 115.198 65.107 115.91 64.4051 116.652C64.1869 116.868 63.8451 117.111 63.784 117.397C63.2601 119.047 62.0133 120.603 62.046 122.404C62.0381 123.079 61.7068 123.74 61.5373 124.409C60.2071 124.867 60.0723 126.18 58.6521 126.763C55.7735 127.896 52.8858 129.157 50.2984 130.753C49.4913 131.266 48.6462 131.745 47.8345 132.321C46.3394 133.384 44.8442 134.446 43.3872 135.543C42.96 135.846 42.609 136.217 42.3389 136.592C39.3767 140.583 37.8176 144.794 38.8648 149.403C39.1434 150.604 39.2984 151.832 38.3125 153.141C37.0724 153.475 35.5425 153.893 34.0125 154.311C33.5564 154.453 32.8625 154.52 32.7632 154.773C32.2715 155.974 31.2299 155.802 30.0509 155.849C28.3824 155.94 26.6375 155.963 25.4519 157.231C25.191 157.478 24.6541 157.616 24.2407 157.727C21.6842 158.327 19.271 159.191 17.068 160.513C15.4158 161.504 13.4587 162.226 11.84 163.316C8.55985 165.525 5.55112 167.906 3.93752 171.182C3.7009 171.655 3.26451 172.087 2.94706 172.555C0.114313 177.002 -0.302652 181.679 0.973267 186.49C1.1027 186.946 1.31757 187.341 1.36617 187.793C1.98622 192.706 5.76412 195.983 10.3399 198.876C11.0779 199.325 11.8816 199.423 12.7221 199.008C13.6527 198.468 14.5406 197.959 15.514 197.389C15.374 196.515 15.0678 195.698 15.1231 194.929C15.1402 194.126 16.2798 193.499 15.8258 192.483C12.9711 191.591 10.4857 190.073 8.13311 188.398C5.62807 186.589 4.84813 184.467 5.60275 181.862C6.14045 180.02 6.79709 178.215 8.01036 176.562C9.18091 174.939 10.6183 173.553 12.327 172.338C14.5103 170.726 16.8414 169.313 19.1863 167.707C19.1193 167.511 19.0615 167.187 18.9702 166.766C25.5895 163.217 33.0302 161.215 40.6674 159.863C41.1675 160.238 41.5151 160.478 41.8963 160.815C42.2242 160.765 42.633 160.717 42.9609 160.667C43.9066 160.482 44.6676 160.61 45.2301 161.244C45.6448 161.68 46.1114 161.957 46.7869 162.146C47.9002 162.45 49.0134 162.753 50.0182 163.439C50.8278 164.019 52.3117 164.242 53.4861 164.259C54.9884 164.226 56.306 164.506 57.5625 165.073C58.3097 165.394 59.0661 165.587 60.0072 165.465C60.8247 165.371 61.7474 165.506 62.5465 165.668C63.3456 165.831 63.9877 165.922 64.6331 165.402C64.8467 165.25 65.3363 165.207 65.7023 165.19C69.5015 165.349 73.304 164.898 77.0591 164.541C77.5487 164.497 77.9956 164.484 78.4806 164.504C81.0915 164.839 83.5777 164.654 85.9239 163.595C86.6363 163.271 87.022 163.545 87.1481 164.611C88.1424 164.878 89.1262 164.726 90.0903 164.284C90.6365 164.018 91.2253 163.721 91.8096 163.488C91.619 163.32 91.4666 163.185 91.2333 163.046C91.4896 162.864 91.7078 162.648 91.9976 162.564C92.3255 162.513 92.687 162.561 93.053 162.544C94.1236 162.878 94.8879 162.396 95.6141 161.88C96.2976 161.394 96.1774 160.81 96.0999 160.196C95.9935 159.42 95.8825 158.708 95.776 157.932C95.4673 156.022 94.4935 154.342 92.9781 152.863C92.5253 152.394 91.8163 152.107 91.1453 151.854C88.5377 150.909 85.7362 150.405 82.8735 150.189C80.415 149.989 77.9473 149.918 75.4796 149.846C74.7521 149.816 74.0108 149.978 73.2787 150.011C72.7082 150.051 72.1332 150.156 71.572 150.068C70.2451 149.916 68.9472 149.926 67.6355 150.128C67.184 150.205 66.6517 150.28 66.214 150.165C64.4679 149.641 63.0142 150.127 61.7845 150.879C58.617 150.393 55.5985 150.652 52.6806 151.204C51.1599 151.494 49.6575 151.528 48.198 151.531C46.7384 151.534 45.6712 150.589 44.8037 149.684C44.2031 149.016 44.3819 148.22 44.7178 147.494C45.5315 145.76 46.5404 144.131 48.1729 142.849C49.63 141.753 51.1632 140.724 52.7438 139.601C52.4908 139.172 52.3141 138.811 52.0611 138.382C52.4837 138.143 53.0863 137.654 53.3623 137.762C55.0184 138.41 55.9523 137.26 57.2306 136.96C57.3968 136.902 57.6242 136.558 57.5953 136.396C57.5421 136.008 57.37 135.583 57.8688 135.411C58.2868 135.236 58.7718 135.256 59.2232 135.178C60.0454 135.02 60.8629 134.926 61.7278 134.737C62.8825 134.464 63.9333 134.508 64.8908 135.288C64.8757 134.933 64.8514 134.707 64.8501 134.161C65.8549 134.846 66.7118 135.332 67.317 135.936C67.6173 136.27 67.3715 136.871 67.3636 137.546C68.6825 138.373 70.2485 139.146 71.9808 139.861C73.4752 140.503 74.9222 141.239 76.3693 141.974C78.0877 142.883 79.9771 143.669 82.1596 143.761C83.2912 143.808 84.3664 144.078 85.4842 144.318C88.0386 144.875 90.4984 145.622 93.204 145.767C94.0932 145.805 94.9928 146.26 95.7873 146.487C96.6095 146.328 97.4408 146.042 98.2492 146.076C100.921 146.123 103.584 146.299 106.252 146.411C108.068 146.52 109.889 146.564 111.456 145.633C111.712 145.451 112.159 145.438 112.568 145.39C114.445 145.212 116.318 145.098 118.234 144.953C119.09 144.892 119.581 145.395 120.204 145.743C120.714 145.989 121.322 145.983 121.606 145.416C121.696 145.291 121.71 145.099 121.8 144.974C121.89 144.849 122.142 144.731 122.261 144.768C123.735 145.12 124.45 143.638 125.938 143.797C128.031 144.014 129.793 143.187 131.493 142.648C132 141.801 130.727 142.037 130.867 141.207C131.612 140.435 132.232 139.142 134.356 138.91C134.487 139.912 133.085 140.239 132.907 141.035C133.369 141.376 133.796 141.073 134.133 140.894C134.636 140.658 135.063 140.354 135.372 140.014C137.24 137.713 138.066 135.24 137.451 132.513C137.302 131.767 137.191 131.055 137.203 130.317C137.176 128.997 136.665 127.658 136.476 126.331C136.239 124.553 135.147 123.382 132.907 122.967C132.707 122.926 132.593 122.825 132.441 122.69C132.364 122.622 132.369 122.558 132.293 122.491C132.453 121.951 133.005 122.167 133.409 122.184C134.622 122.235 135.868 122.384 137.123 122.404C137.57 122.391 138.026 122.249 138.477 122.172C138.395 121.622 138.652 121.439 139.332 121.564C140.244 121.281 141.133 121.318 142.008 121.548C141.125 121.993 140.203 121.858 139.327 121.628C139.028 121.841 138.772 122.023 138.473 122.236C138.935 122.577 139.316 122.914 140.095 122.786C141.16 122.638 142.22 122.554 143.285 122.405C142.98 122.135 142.675 121.865 142.37 121.595C142.974 121.653 143.535 121.741 144.139 121.798C143.883 121.98 143.622 122.227 143.366 122.409C143.87 122.719 144.403 122.645 144.901 122.473C144.673 122.271 144.406 122.034 144.22 121.802C144.658 121.916 144.972 122.058 144.944 122.443C145.449 122.753 146.015 122.777 146.561 122.511C148.662 122.599 150.601 122.134 152.587 121.574C153.29 121.378 154.036 121.153 154.764 121.183C157.274 121.224 159.675 121.1 162.003 120.297C163.58 119.785 165.334 119.633 166.983 119.252C168.095 119.01 169.131 118.699 169.646 117.724C169.926 117.222 170.544 117.087 171.318 117.023C174.912 116.659 176.582 115.411 177.265 112.675C177.77 110.735 177.789 108.775 177.646 106.807C177.631 106.453 177.374 106.089 177.278 105.731C177.148 105.275 176.819 104.779 176.966 104.432C177.41 103.325 176.79 102.367 176.621 101.331C176.38 100.163 175.499 99.4511 174.324 98.8874C173.148 98.3237 171.801 97.8813 170.54 97.3783C172.151 96.9636 172.151 96.9636 173.473 97.1799C174.876 97.3995 176.237 97.6495 177.64 97.8691C178.401 97.9975 179.086 98.0584 179.697 97.4411C179.958 97.1948 180.733 97.1309 181.261 97.1208C182.193 97.1278 183.158 97.2326 184.128 97.2733C186.311 97.3649 188.498 97.3924 190.67 97.0656C191.449 96.9375 192.367 97.1368 193.176 97.1707C194.146 97.2114 195.131 97.6064 196.109 96.9723C196.408 96.7598 197.012 96.8173 197.497 96.8376C200.373 96.8619 203.225 96.66 206.015 96.1984C208.31 95.8446 210.515 95.069 212.982 95.1404C213.791 95.1744 214.627 94.8236 215.42 94.5033C216.465 94.0648 217.424 93.6871 218.641 93.6739C218.927 93.6537 219.293 93.6369 219.464 93.5155C220.883 92.3855 222.913 92.342 224.618 91.7384C226.613 91.0505 228.543 90.7136 230.707 91.0616C231.587 91.2271 232.566 91.1396 233.426 91.0149C233.792 90.9981 234.186 90.5967 234.371 90.2829C234.693 89.7499 235.216 89.804 235.753 89.6658C236.166 89.5545 236.593 89.2509 236.735 88.9675C236.972 88.4952 237.051 87.952 237.169 87.4425C237.535 85.1751 237.777 82.9347 237.534 80.6739C237.519 80.3196 237.546 79.935 237.583 79.4221C238.966 79.3516 240.168 78.9841 241.189 78.3196C241.911 77.8676 242.728 77.7733 243.622 77.7465C245.324 77.7536 246.993 77.6629 248.68 77.3157C249.792 77.073 251.109 77.3534 252.203 77.3671C253.695 76.9153 255.068 76.4263 256.146 76.0858C257.111 76.1906 256.329 76.9294 257.184 76.8688C257.797 76.7981 258.491 76.7308 258.528 76.2179C258.541 75.4789 258.587 74.8379 259.385 74.4534C260.681 73.8969 262.025 73.246 263.628 73.5062C263.828 73.5467 263.994 73.4894 264.318 73.5029C265.422 72.2311 266.251 70.8513 266.409 69.2182C266.702 66.2726 266.952 63.3573 266.797 60.4251C266.752 59.3622 265.405 56.6693 264.448 55.8897C263.528 55.1438 262.528 54.3945 261.523 53.7093C261.252 53.5372 260.895 53.4258 260.495 53.3447C259.977 53.2265 259.288 53.2297 258.859 52.9867C257.926 52.4331 257.04 51.785 256.192 51.1708C256.553 50.6715 257.038 50.6918 257.471 50.8707C259.365 51.5932 261.617 51.2698 263.507 52.0564C263.859 52.2319 264.51 52.195 264.924 52.0837C265.874 51.8342 266.705 51.5476 267.506 52.2564C267.658 52.3914 268.271 52.3206 268.599 52.2701C269.093 52.1622 269.644 51.8317 270.129 51.852C271.018 51.8894 271.865 51.957 272.754 51.9943C273.519 52.0586 274.204 52.1195 274.927 52.2141C275.369 52.2648 275.708 52.6327 276.174 52.9095C276.943 52.3631 277.817 52.0461 278.978 52.2555C279.901 52.3907 280.88 52.3032 281.812 52.3101C282.297 52.3305 282.796 52.1585 283.233 52.2733C285.593 52.726 287.974 52.3115 290.289 52.2479C291.71 52.2111 293.107 51.9482 294.495 51.8135C294.985 51.7698 295.484 51.5978 295.883 51.6789C297.163 51.9255 298.36 51.6221 299.515 51.349C302.808 50.6513 306.144 49.9232 308.902 48.2063C310.047 47.5149 310.791 46.7423 310.912 45.6221C311.052 44.2455 311.315 42.8419 311.411 41.4956C311.453 40.9187 311.456 40.3079 311.417 39.7275C311.392 39.5015 311.368 39.2754 311.301 39.0797C311.479 37.7368 310.677 36.4814 309.196 35.6477ZM212.631 9.73284C212.669 9.76659 212.788 9.80374 212.826 9.83749C212.897 9.9691 212.931 10.067 212.96 10.2289C212.803 10.158 212.684 10.1209 212.57 10.0196C212.531 9.98588 212.621 9.86106 212.631 9.73284ZM204.481 11.4485C204.519 11.4823 204.643 11.4553 204.638 11.5194C204.671 11.6173 204.667 11.6814 204.658 11.8096C204.629 11.6476 204.552 11.5801 204.481 11.4485ZM16.4418 169.231C16.1001 169.474 15.7156 169.748 15.2884 170.051C15.1879 169.758 15.0781 169.592 15.1255 169.498C15.3148 169.12 15.6565 168.877 16.1369 168.961C16.2559 168.999 16.4418 169.231 16.4418 169.231ZM31.1862 161.491C30.9437 161.481 30.6631 161.437 30.4252 161.363C30.3871 161.329 30.439 161.17 30.4528 160.978C30.7334 161.022 30.9759 161.032 31.2138 161.106C31.29 161.174 31.1954 161.363 31.1862 161.491ZM78.2655 157.904C77.6385 158.167 77.0773 158.08 76.4872 157.83C77.5656 157.489 77.6037 157.523 78.2655 157.904ZM71.1522 157.606C71.1141 157.572 71.2041 157.447 71.2468 157.417C71.5794 157.302 71.9973 157.127 72.278 157.171C73.5621 157.353 74.8416 157.6 76.1638 157.816C74.7377 157.917 73.3544 157.988 71.8902 158.055C71.7285 158.048 71.486 158.038 71.3289 157.967C71.2527 157.9 71.1857 157.704 71.1522 157.606ZM69.2687 157.302C69.2687 157.302 69.4685 157.342 69.3404 157.433L69.2687 157.302ZM72.4307 163.511C72.5923 163.518 72.754 163.525 72.9111 163.596C72.9111 163.596 72.9018 163.724 72.8972 163.788C72.7356 163.781 72.5739 163.774 72.4168 163.703C72.3787 163.67 72.4261 163.575 72.4307 163.511ZM124.981 132.858C124.183 133.242 123.381 133.691 122.549 133.978C120.131 134.905 117.685 135.67 114.883 135.167C114.441 135.116 113.913 135.126 113.5 135.238C112.459 135.612 111.489 135.571 110.405 135.429C109.844 135.341 109.273 135.382 108.665 135.388C103.787 135.57 98.913 135.14 94.138 134.457C90.5281 133.92 86.7336 133.696 83.4872 132.049C83.0587 131.806 82.3694 131.809 81.8509 131.691C80.1856 131.171 78.4257 130.84 76.4358 129.76C79.7001 128.9 82.4517 128.405 85.2704 128.105C86.9863 127.92 88.6976 127.799 90.4043 127.742C92.4344 127.698 94.4263 127.621 96.3998 127.801C98.4541 127.983 100.504 128.23 102.604 127.772C103.426 127.613 104.454 127.978 105.372 128.177C105.81 128.292 106.2 128.501 106.714 128.683C107.764 128.181 108.79 127.999 109.994 128.178C113.594 128.844 117.256 129.222 120.843 130.08C121.761 130.279 122.684 130.415 123.597 130.678C124.782 131.114 125.425 131.751 124.981 132.858ZM78.1835 126.875C78.2308 126.781 78.3208 126.656 78.3681 126.562C78.4871 126.599 78.6869 126.639 78.8058 126.676C78.6777 126.768 78.5876 126.892 78.4213 126.95C78.3832 126.916 78.2643 126.879 78.1835 126.875ZM91.6058 125.124C91.7294 125.097 91.8956 125.039 92.0192 125.012L92.1716 125.147C92.0481 125.174 91.8818 125.232 91.7583 125.259C91.7583 125.259 91.682 125.191 91.6058 125.124ZM110.544 119.392C108.519 119.918 106.825 119.236 105 119.256C104.633 119.272 104.191 119.222 103.859 119.336C102.686 119.866 101.359 119.714 100.232 119.602C98.943 119.484 97.6924 119.399 96.5712 119.77C94.5378 120.424 92.4881 120.177 90.4581 120.221C89.0366 120.258 87.6197 120.23 86.189 120.395C84.0216 120.658 81.8877 121.019 79.7538 121.379C79.4259 121.43 79.2412 121.743 79.023 121.959C78.8949 122.05 78.7575 122.27 78.6766 122.266C77.3544 122.05 76.32 122.907 75.1121 122.792C73.619 122.697 72.298 123.027 70.9008 123.29C70.5729 123.341 70.2068 123.358 69.7218 123.337C69.8382 122.281 70.688 121.738 71.4569 121.192C74.699 118.949 78.0934 116.841 81.9696 115.363C85.0525 114.207 88.1735 113.084 91.1848 111.796C92.6905 111.151 94.135 110.794 95.866 110.963C96.9943 111.621 98.3697 112.226 98.9716 113.441C99.0814 113.606 99.31 113.808 99.5479 113.883C102.646 115.331 106.058 116.374 109.474 117.354C109.911 117.468 110.401 117.425 110.848 117.411C113.078 117.408 113.672 117.594 116.196 119.147C114.247 119.194 112.24 118.916 110.544 119.392ZM225.886 22.1528C226.248 22.2001 226.609 22.2474 226.971 22.2948C226.881 22.4196 226.905 22.6456 226.824 22.6422C226.496 22.6928 226.135 22.6455 225.769 22.6623C225.787 22.4058 225.848 22.119 225.886 22.1528ZM229.605 24.5594C229.643 24.5932 229.596 24.6876 229.591 24.7517C229.468 24.7787 229.259 24.8664 229.14 24.8292C228.902 24.755 228.712 24.5862 228.516 24.4816C228.606 24.3567 228.782 24.1712 228.782 24.1712C229.058 24.2792 229.291 24.4176 229.605 24.5594ZM213.935 22.6158L213.84 22.8047L213.688 22.6697L213.935 22.6158ZM154.72 45.5945C155.938 43.8773 157.313 42.231 159.154 40.8615C160.654 39.7348 162.306 38.7432 163.963 37.6874C164.177 37.5356 164.462 37.5154 164.714 37.3974C167.55 36.2947 170.305 35.1885 173.06 34.0824C173.096 33.5695 173.162 33.2186 173.237 32.7395C174.607 32.8613 176.048 33.1147 176.863 31.9271C176.953 31.8023 177.362 31.7552 177.647 31.735C178.711 31.5868 179.743 31.3407 180.755 31.351C182.662 31.3346 184.478 31.4429 186.055 32.6344C187.131 33.4512 188.635 33.9644 189.668 34.8115C190.893 35.8274 192.372 36.1146 193.88 36.5637C194.594 36.7865 195.359 36.8508 196.069 37.1377C197.763 37.8197 199.41 38.5961 201.108 39.214C204.82 40.5915 208.399 42.1241 212.343 43.0934C213.855 43.4784 215.411 43.833 216.963 44.7984C216.184 44.9264 215.461 44.8318 215.2 45.0781C213.853 46.3397 212.591 45.8367 211.311 45.0435C210.92 44.8342 210.449 44.6215 210.002 44.6349C209.555 44.6483 209.09 44.9181 208.506 45.1508C207.097 44.4487 205.471 44.5091 203.722 44.5964C200.503 44.815 197.27 44.6793 194.095 44.8676C192.792 44.9415 191.619 45.471 190.259 45.221C189.94 45.1434 189.479 45.3491 189.223 45.5312C188.335 46.0405 187.346 46.2563 186.233 45.9523C185.558 45.7632 184.94 45.8981 184.318 46.097C183.819 46.269 183.244 46.3735 182.673 46.4138C180.834 46.626 178.923 46.7066 177.074 47.0469C175.843 47.2525 174.693 47.4614 173.433 47.505C172.701 47.5386 171.765 47.5958 171.295 47.9297C170.355 48.5976 169.333 48.7155 168.188 48.8603C167.166 48.9782 166.211 49.2918 165.18 49.5378C163.982 49.8413 162.856 50.2763 161.63 50.4177C160.404 50.5592 159.187 50.5724 158.161 51.301C157.563 51.726 156.674 51.6887 156.064 51.1487C154.378 49.7919 152.915 48.1551 154.72 45.5945ZM222.218 49.52C222.261 49.4897 222.456 49.5943 222.575 49.6315C222.532 49.6618 222.447 49.7225 222.366 49.7192C222.243 49.7461 222.081 49.7393 221.919 49.7326C222.005 49.6718 222.133 49.5808 222.218 49.52ZM203.817 48.9086C203.855 48.9424 203.932 49.0099 203.927 49.074C203.927 49.074 203.803 49.101 203.761 49.1313C203.723 49.0976 203.689 48.9997 203.651 48.966C203.651 48.966 203.775 48.939 203.817 48.9086ZM197.143 49.2716C197.21 49.4673 197.32 49.6327 197.306 49.825C197.297 49.9532 197.168 50.0443 197.078 50.1691C196.807 49.997 196.531 49.8889 196.26 49.7168C196.307 49.6223 196.354 49.5278 196.397 49.4975C196.687 49.4132 196.934 49.3593 197.143 49.2716ZM172.387 53.602C171.713 53.9595 171.166 53.6793 170.58 53.3654C171.222 53.4566 171.783 53.5445 172.387 53.602ZM160.939 51.5783L160.759 51.8279C160.72 51.7942 160.687 51.6963 160.649 51.6626C160.734 51.6019 160.858 51.5749 160.939 51.5783ZM173.543 71.9443C175.135 71.7861 176.306 72.4139 177.473 73.1059C174.945 73.8679 173.951 73.6011 173.543 71.9443ZM169.412 70.1956C168.381 70.4417 167.847 69.9692 167.271 69.527C168.61 68.9402 169.777 69.6322 170.975 69.8754C171.137 69.8821 171.237 70.1757 171.381 70.439C170.577 70.3409 169.906 70.0877 169.412 70.1956ZM139.873 64.3585L139.707 64.4158C139.745 64.4495 139.754 64.3213 139.873 64.3585ZM125.242 75.6082C126.492 73.4422 128.247 71.5868 130.811 70.3119C131.609 69.9274 132.259 69.3438 132.942 68.8581C133.241 68.6456 133.46 68.4297 133.797 68.2509C136.651 66.8918 139.505 65.5326 142.397 64.2072C143.447 63.7047 144.573 63.2696 145.58 62.7975C146.392 60.5167 147.062 60.2233 149.555 61.0674C149.636 61.0708 149.712 61.1383 149.793 61.1417C150.392 61.2633 150.582 60.8854 150.766 60.5716C151.774 60.6461 152.801 60.4641 153.823 60.3463C154.517 60.2789 155.449 60.2859 155.991 60.6302C157.506 61.5618 159.528 62.1932 159.931 63.9141C161.956 63.9348 163.527 64.6437 165.14 65.3223C168.134 66.541 168.6 66.8178 169.568 68.0159C168.699 68.2688 167.829 68.5216 166.993 68.8724C166.533 69.0781 166.918 69.3515 167.104 69.5843C166.488 70.2658 165.699 70.522 164.633 70.1237C164.357 70.0156 164.167 69.8469 163.886 69.8029C163.767 69.7658 163.596 69.8872 163.392 69.9108C163.155 70.3831 164.174 70.876 163.163 71.4123C162.882 71.3683 162.516 71.3851 162.202 71.2434C160.184 70.5478 158.058 70.2336 155.919 70.1116C155.191 70.0811 154.502 70.0843 154.18 70.6174C153.635 71.4304 152.474 71.221 151.795 71.6426C150.656 72.2699 149.841 71.7535 148.89 71.4564C148.733 71.3855 148.486 71.4394 148.324 71.4326C147.987 71.6114 147.693 71.7598 147.355 71.9385C146.975 72.1477 146.596 72.3568 146.254 72.5996C145.229 73.3282 144.773 73.4699 143.516 72.9027C142.145 72.2343 141.042 72.3488 139.889 73.1685C139.675 73.3203 139.462 73.4721 139.082 73.6812C136.399 73.2149 133.724 73.7778 131.077 74.5027C130.084 74.7826 129.13 75.0961 128.137 75.376C127.144 75.6558 126.155 75.8716 125.162 76.1514C125.271 75.7701 125.237 75.6723 125.242 75.6082ZM164.862 74.2807C164.452 73.7812 164.004 73.248 163.365 72.5461C164.211 72.6137 164.815 72.6712 165.338 72.7253C166.235 72.0878 167.114 71.7067 168.152 72.4897L166.059 73.9773C165.945 73.876 165.792 73.741 165.678 73.6398C165.422 73.8219 165.123 74.0345 164.862 74.2807ZM161.209 73.7738C160.981 73.5713 160.752 73.3688 160.523 73.1663C161.217 73.0989 161.255 73.1327 161.209 73.7738ZM155.958 74.6465C155.825 74.8017 155.102 74.7071 154.707 74.5619C154.031 74.3728 153.365 74.0555 152.537 73.7314C153.719 73.0737 154.543 73.4619 155.362 73.9142C155.633 74.0864 156.403 74.0865 155.958 74.6465ZM145.086 95.635C145.794 95.3753 146.436 95.4666 147.212 95.9493C146.171 96.3236 145.577 96.1378 145.086 95.635ZM102.119 97.2721C103.908 95.5146 105.891 93.8616 107.875 92.2087C109.431 90.8594 111.135 89.7092 113.106 88.7952C113.776 88.5018 114.331 88.1071 114.924 87.7462C116.619 86.7242 118.496 85.9992 120.54 85.7634C121.645 86.7422 123.002 87.6029 123.737 88.6626C124.576 89.9517 126.307 90.1208 127.417 91.0354C127.532 91.1367 127.684 91.2717 127.841 91.3426C128.155 91.4844 128.546 91.6937 128.869 91.7072C130.414 91.6435 131.533 92.4299 132.889 92.744C133.607 92.9027 134.325 93.0615 135.086 93.1899C136.646 93.4804 138.387 93.5213 139.724 94.0918C141.257 94.767 143.143 94.4603 144.581 95.3244C144.738 95.3953 144.853 95.4966 144.967 95.5978C143.652 96.4107 142.317 96.9334 140.652 96.4134C139.498 97.2331 138.286 97.1822 136.991 96.5814C136.363 96.2978 135.834 95.7612 134.969 95.9499C133.498 97.2385 133.46 97.2048 131.733 96.425C131.418 96.2832 131.1 96.2055 130.662 96.0907C130.459 96.6609 130.389 97.0759 130.19 97.582C127.398 96.9504 124.609 97.9587 121.864 97.2326C121.486 97.9883 120.926 98.4471 119.947 98.5346C118.354 98.6929 116.686 98.7836 115.198 99.1713C114.248 99.4208 113.388 99.5454 112.474 99.282C111.599 99.0524 110.724 98.8228 109.806 98.6235C108.675 99.1226 107.473 99.4901 107.181 100.732C105.983 100.489 104.903 100.283 103.785 100.043C102.705 99.8366 101.575 100.336 100.428 99.934C100.587 98.8475 101.375 98.0446 102.119 97.2721ZM146.623 102.451C145.711 102.734 144.932 102.862 144.236 102.383C144.982 102.157 145.733 101.867 146.623 102.451ZM143.22 100.733C143.224 100.669 143.186 100.635 143.153 100.537C143.195 100.507 143.281 100.446 143.319 100.48C143.4 100.483 143.476 100.551 143.514 100.585L143.22 100.733ZM138.379 100.401C138.423 100.918 138.01 101.029 137.648 100.981C137.168 100.897 136.568 100.775 136.904 100.05C137.423 100.168 137.941 100.286 138.379 100.401ZM135.048 101.065C134.767 101.021 134.529 100.947 134.329 100.906C134.334 100.842 134.381 100.748 134.424 100.718C134.59 100.66 134.795 100.637 134.914 100.674C134.994 100.677 134.981 100.869 135.048 101.065ZM131.067 100.609C131.177 100.774 131.017 101.314 130.893 101.341C130.399 101.449 129.876 101.395 129.101 101.459C129.342 100.922 129.374 100.473 129.669 100.325C130.096 100.022 130.733 100.177 131.067 100.609ZM126.871 101.462C126.824 101.556 126.572 101.674 126.453 101.637C126.054 101.556 125.659 101.411 125.302 101.299C125.354 101.141 125.406 100.982 125.457 100.824C125.857 100.905 126.299 100.955 126.694 101.101C126.775 101.104 126.88 101.333 126.871 101.462ZM122.849 101.582C122.802 101.677 122.703 101.93 122.664 101.896C122.422 101.886 122.184 101.811 121.946 101.737C122.155 101.649 122.364 101.562 122.654 101.478C122.692 101.511 122.849 101.582 122.849 101.582ZM121.861 101.798C121.757 102.115 121.615 102.398 121.554 102.685C120.793 102.557 120.074 102.398 119.076 102.195C120.072 101.305 120.885 101.275 121.861 101.798ZM117.197 101.827C117.136 102.114 117.036 102.367 116.971 102.718C116.614 102.607 116.333 102.563 116.181 102.428C115.914 102.191 115.861 101.803 116.274 101.692C116.483 101.604 116.835 101.78 117.197 101.827ZM110.938 103.172C110.81 103.263 110.639 103.385 110.558 103.381C110.24 103.304 109.964 103.196 109.688 103.088C110.016 103.037 110.344 102.986 110.671 102.936C110.752 102.939 110.862 103.105 110.938 103.172ZM99.9332 101.746L99.6953 101.672L99.8235 101.58L99.9332 101.746ZM103.91 104.517C103.914 104.453 103.919 104.389 103.962 104.358L104.209 104.304C104.085 104.331 103.957 104.422 103.91 104.517ZM146.812 122.393C146.784 122.231 146.716 122.035 146.688 121.873C146.849 121.88 147.011 121.887 147.173 121.893C147.035 122.113 146.945 122.238 146.812 122.393ZM144.209 119.133C143.924 119.153 143.558 119.17 143.272 119.19C143.192 119.186 143.077 119.085 143.077 119.085C143.125 118.991 143.219 118.802 143.3 118.805C143.585 118.785 143.947 118.832 144.189 118.842C144.223 118.94 144.218 119.004 144.209 119.133ZM159.604 113.059C159.485 113.022 159.285 112.981 159.166 112.944C159.166 112.944 159.175 112.816 159.218 112.786C159.38 112.793 159.541 112.799 159.665 112.772C159.66 112.836 159.613 112.931 159.604 113.059ZM171.255 112.262C170.809 112.822 170.149 112.987 169.312 112.791C169.704 111.843 169.704 111.843 171.035 111.931C171.074 111.965 171.141 112.161 171.255 112.262ZM169.723 109.883C167.998 110.196 167.998 110.196 166.997 111.151C166.608 111.488 166.376 111.897 165.987 112.234C165.769 112.45 165.47 112.662 165.137 112.777C165.014 112.804 164.619 112.659 164.547 112.527C164.212 111.549 163.759 111.079 162.785 111.103C161.934 111.099 161.111 111.258 160.213 111.349C157.071 111.635 154.058 112.376 150.848 111.92C150.406 111.869 149.912 111.977 149.46 112.055C148.072 112.189 146.642 112.354 145.215 112.455C144.36 112.516 143.423 112.573 142.672 112.316C141.168 111.803 139.699 111.935 138.168 111.806C135.505 111.63 132.838 111.518 130.184 111.214C127.649 110.947 125.124 110.551 122.56 110.122C120.677 109.818 118.788 109.578 117.047 108.991C114.83 108.255 112.608 107.583 110.329 107.133C109.968 107.086 109.53 106.971 109.344 106.738C108.786 106.04 107.888 106.131 107.042 106.063C106.718 106.049 106.404 105.908 105.572 105.648C107.178 105.297 108.247 105.085 109.316 104.872C109.891 104.768 110.471 104.599 110.994 104.653C111.436 104.704 111.817 105.042 112.327 105.288C112.254 104.61 112.324 104.195 113.094 104.195C113.38 104.175 113.66 104.219 113.903 104.229C114.957 103.662 116.169 103.713 117.358 103.538C118.831 103.343 120.295 103.275 121.558 102.621C122.286 102.652 123.009 102.746 123.703 102.679C127.501 102.292 131.251 101.999 135.093 102.128C137.004 102.048 138.92 101.903 140.822 101.951C141.915 101.964 143.065 101.755 144.079 102.312C143.58 102.484 143.039 102.687 142.54 102.859C143.155 103.334 143.891 103.237 144.619 103.267C147.286 103.379 149.954 103.491 152.305 104.619C153.324 105.112 154.489 105.257 155.31 104.552C156.418 104.92 157.323 105.311 158.317 105.578C160.51 106.088 162.755 106.44 164.948 106.95C166.974 107.517 168.787 108.236 169.723 109.883ZM150.32 95.5653C150.287 95.4674 150.253 95.3696 150.262 95.2413C150.424 95.2481 150.543 95.2853 150.705 95.2921L150.772 95.4878C150.605 95.5451 150.444 95.5383 150.32 95.5653ZM155.252 96.3188C155.091 96.312 154.891 96.2715 154.729 96.2647C154.772 96.2344 154.819 96.1399 154.862 96.1095C155.024 96.1163 155.223 96.1568 155.385 96.1636C155.338 96.2581 155.333 96.3222 155.252 96.3188ZM155.199 93.6802C156.349 93.4712 156.349 93.4712 157.044 93.9505C156.402 93.8593 156.04 93.812 155.199 93.6802ZM161.319 94.2585C163.044 93.9451 164.505 94.4887 165.975 94.904C163.237 95.2071 162.638 95.0855 161.319 94.2585ZM168.895 97.1485C168.728 97.2058 168.524 97.2294 168.362 97.2226C168.243 97.1855 168.172 97.0539 168.057 96.9526C168.224 96.8953 168.433 96.8076 168.552 96.8447C168.751 96.8853 168.78 97.0472 168.895 97.1485ZM168.914 95.1881C168.667 95.242 168.343 95.2285 168.101 95.2183C168.02 95.2149 167.953 95.0192 167.881 94.8876C168.29 94.8404 168.661 94.7595 169.193 94.6854C169.051 94.9688 169.037 95.1611 168.914 95.1881ZM171.658 95.3675L171.71 95.209L171.867 95.2798L171.658 95.3675ZM184.161 95.1206C184.033 95.2117 183.905 95.3027 183.781 95.3297C183.739 95.3601 183.629 95.1947 183.514 95.0935C183.681 95.0361 183.842 95.0429 184.009 94.9856L184.161 95.1206ZM187.49 95.614C187.448 95.6443 187.286 95.6375 187.248 95.6038C187.172 95.5363 187.181 95.4081 187.109 95.2765C187.271 95.2832 187.433 95.29 187.594 95.2968C187.547 95.3913 187.538 95.5195 187.49 95.614ZM196.765 95.1672C199.009 94.972 200.963 94.8611 203.003 95.2361C200.451 95.772 198.464 95.7851 196.765 95.1672ZM204.885 94.9936C204.724 94.9868 204.605 94.9496 204.448 94.8787C204.614 94.8214 204.737 94.7945 204.904 94.7371C204.985 94.7405 205.065 94.7439 205.184 94.7811C205.056 94.8721 204.966 94.997 204.885 94.9936ZM230.807 89.1046C230.275 89.1787 229.881 89.5801 229.339 89.7825C228.841 89.9544 228.294 90.2209 227.767 90.2309C225.979 90.2845 224.221 90.5 222.491 90.8776C220.718 91.2854 218.989 91.663 217.264 91.9764C216.318 92.1618 215.086 91.8207 214.798 92.9982C213.843 93.3118 212.917 93.7874 211.899 93.2945C211.115 93.4867 211.241 94.5529 210.109 94.5055C209.556 93.7428 208.794 93.0678 208.948 92.0454C209.371 91.8059 209.793 91.5665 210.216 91.327C209.289 91.2559 208.404 91.1545 207.51 91.1813C207.225 91.2015 206.921 91.4781 206.627 91.6265C206.923 92.0247 207.185 92.3251 207.404 92.6558C207.443 92.6896 207.314 92.7806 207.224 92.9055C204.967 93.293 202.689 92.8437 200.369 92.9714C200.277 92.5496 200.258 92.2594 200.195 91.9996C198.963 91.6586 197.923 92.0329 196.92 92.4409C197.325 92.4579 197.857 92.3838 197.811 93.0249C197.364 93.0383 196.913 93.1158 196.508 93.0988C196.347 93.092 196.203 92.8288 196.051 92.6938L196.721 92.4004C195.151 92.2381 193.62 92.1095 192.008 91.9776C191.204 91.8795 190.344 92.0042 189.658 91.3967C189.766 91.0154 189.913 90.6679 190.017 90.3508C187.639 90.1546 185.314 89.7997 183.091 90.8318C182.421 91.1252 181.442 91.2127 180.904 90.8043C180.132 90.2575 179.353 90.3855 178.464 90.3482C176.89 90.25 175.226 90.2767 173.77 89.669C173.298 89.4563 172.647 89.4933 172.081 89.4695C171.354 89.439 170.579 89.5029 169.813 89.4387C168.001 89.2662 166.27 89.0971 164.511 88.766C162.713 88.4012 160.806 88.4177 158.923 88.1136C155.76 87.5629 152.536 87.299 149.368 86.8124C147.123 86.461 144.93 85.951 142.737 85.441C140.268 84.823 137.889 84.0802 135.506 83.4014C134.354 83.0638 133.203 82.7261 132.203 81.9768C132.345 81.6934 132.482 81.4741 132.624 81.1907C131.735 81.1534 130.841 81.1802 129.709 81.1327C130.099 80.7954 130.279 80.5457 130.445 80.4884C132.844 79.8175 135.248 79.0824 137.681 78.5093C139.948 77.9936 142.324 77.6432 144.62 77.2894C146.383 77.0097 148.242 77.0878 149.733 76.0893C150.032 75.8768 150.674 75.9681 151.083 75.9209C152.509 75.82 153.935 75.7191 155.327 75.5203C155.941 75.4496 156.572 75.1224 157.08 74.8222C157.716 74.431 157.23 73.864 157.267 73.3511C157.276 73.2229 157.447 73.1015 157.67 72.8215C158.478 72.8554 159.405 72.9265 160.337 72.9334C160.201 73.6993 160.277 73.7668 161.1 73.6084C162.223 74.3308 163.427 74.5098 164.757 74.0512C165.17 73.94 165.579 73.8928 165.992 73.7816C167.096 74.2137 168.205 74.5818 169.474 74.41C169.868 74.0085 169.525 73.7048 169.177 73.4651C168.677 73.0905 169.099 72.851 169.284 72.5372C168.927 72.4258 168.57 72.3144 168.214 72.203C168.256 72.1726 168.299 72.1422 168.38 72.1456C170.77 71.6029 170.889 71.6401 172.357 73.2127C172.543 73.4456 172.843 73.7797 173.167 73.7933C174.888 74.0906 176.639 74.5499 178.368 73.6257C180.58 74.4259 182.943 74.2678 185.282 74.4303C185.999 74.0424 186.756 74.2349 187.479 74.3296C189.724 74.681 191.968 75.0324 194.175 75.35C195.379 75.5291 196.719 75.4889 197.785 75.8873C200.036 76.7213 202.442 77.0795 204.944 77.2487C205.224 77.2926 205.51 77.2725 205.786 77.3805C209.505 78.0831 213.187 78.752 216.902 79.5188C222.733 80.728 228.376 82.3152 232.834 85.7173C233.024 85.8861 233.305 85.93 233.5 86.0346C233.533 87.8365 232.736 88.7676 230.807 89.1046ZM229.628 71.0828C229.462 71.1401 229.296 71.1974 229.134 71.1906C229.101 71.0928 229.11 70.9645 229.076 70.8667C229.238 70.8735 229.4 70.8803 229.604 70.8567C229.638 70.9545 229.671 71.0524 229.628 71.0828ZM240.376 76.0992C240.176 76.0586 239.981 75.954 239.781 75.9135C239.824 75.8831 239.909 75.8224 239.994 75.7617C240.194 75.8022 240.432 75.8765 240.632 75.917C240.547 75.9777 240.414 76.1329 240.376 76.0992ZM244.508 72.1894C244.346 72.1826 244.184 72.1758 244.023 72.169C244.023 72.169 243.989 72.0712 243.994 72.0071C244.117 71.9801 244.322 71.9565 244.445 71.9296C244.441 71.9937 244.474 72.0915 244.508 72.1894ZM255.622 71.5305C255.532 71.6553 255.48 71.8139 255.356 71.8409C255.109 71.8948 254.781 71.9453 254.539 71.9352C254.339 71.8946 254.153 71.6618 254.043 71.4964C254.005 71.4627 254.266 71.2164 254.39 71.1894C254.756 71.1726 255.117 71.22 255.398 71.2639C255.55 71.3989 255.665 71.5001 255.622 71.5305ZM259.771 70.7722C259.348 71.0117 258.926 71.2512 258.427 71.4231C258.303 71.4501 258.065 71.3758 257.951 71.2746C257.875 71.2071 257.936 70.9203 258.017 70.9237C258.477 70.7179 258.972 70.6101 259.47 70.4381C259.623 70.5731 259.656 70.671 259.771 70.7722ZM256.855 62.2585C257.485 63.0887 258.452 63.7401 259.29 64.4826C259.747 64.8876 260.209 65.2285 260.624 65.6639C261.411 66.565 261.166 67.7121 259.836 68.1707C258.753 68.5754 257.694 69.2061 256.338 68.892C255.939 68.811 255.402 68.9492 254.946 69.0908C253.872 69.3673 252.832 69.7416 251.753 70.0821C251.431 70.6152 251.109 71.1482 250.744 71.7116C249.846 71.8025 248.986 71.9272 248.168 72.0215C247.876 73.2631 247.667 73.3508 246.296 72.6824C246.75 71.4476 248.719 71.6909 249.538 70.4393C247.704 70.5874 246.111 70.7456 244.523 70.8397C242.612 70.9203 240.692 71.1291 238.838 70.9869C236.74 70.8346 234.747 70.3652 232.58 70.6279C232.171 70.675 231.657 70.4927 231.177 70.4083C230.335 70.2765 229.536 70.1143 228.651 70.0129C224.704 69.6544 220.696 69.5826 216.768 68.9677C214.442 68.6129 212.073 68.2884 209.748 67.9336C208.625 67.7579 207.545 67.5519 206.418 67.4403C200.907 66.8553 195.593 65.7643 190.204 64.6057C187.45 64.0079 184.705 63.2818 182.036 62.6233C179.049 61.8871 175.976 61.2115 173.409 59.6892C172.905 59.3787 172.182 59.2841 171.592 59.0342C169.893 58.4164 168.156 57.7648 166.376 57.1435C166.494 56.6341 166.603 56.2528 166.668 55.9019C166.781 55.4565 166.89 55.0753 166.956 54.7244C166.489 54.4476 166.218 54.2754 165.908 54.0695C167.234 53.675 167.276 53.6447 168.1 54.0329C169.195 54.5933 170.308 54.8972 171.577 54.7254C172.437 54.6007 172.631 54.1588 172.349 53.5682C172.751 52.4919 173.681 51.9523 175.094 52.0437C175.417 52.0572 175.736 52.1349 176.097 52.1822C176.529 51.8145 176.985 51.6729 177.613 51.9565C177.927 52.0983 178.441 52.2806 178.612 52.1592C179.837 51.4711 180.665 51.7952 181.585 52.5411C182.237 53.0508 182.765 53.0408 183.134 52.4132C183.636 51.6305 184.448 51.0537 185.29 51.1855C186.331 51.3578 187.029 50.6798 187.837 50.7137C188.38 51.058 188.808 51.301 188.965 51.3719C191.194 50.8224 193.018 50.2559 194.927 51.3327C195.513 51.6466 196.016 51.4106 196.41 51.0091C196.595 50.6954 196.817 50.4154 197.002 50.1016C198.291 50.22 199.542 50.3046 200.83 50.423C202.119 50.5414 203.437 50.8217 204.733 50.2653C204.942 50.1776 205.389 50.1642 205.503 50.2654C206.385 50.9776 207.324 50.3097 208.176 50.3133C209.759 50.2832 211.412 49.8382 212.755 50.8913C212.908 51.0263 213.431 51.0804 213.559 50.9893C214.452 50.4159 215.371 51.1618 216.359 50.946C216.322 49.2083 214.249 49.2821 213.04 48.6205C214.042 48.2124 214.793 47.9224 215.863 48.2567C217.176 48.6011 217.397 49.4785 217.708 50.231C220.87 50.2351 223.61 51.0252 226.422 51.947C226.849 51.6434 227.2 51.2723 227.699 51.1004C228.16 50.8947 228.768 50.888 229.262 50.7802C229.644 51.1177 230.072 51.3607 230.723 51.3237C230.342 50.9862 229.914 50.7432 229.343 50.7836C228.767 50.3414 228.134 50.1219 227.317 50.2162C227.031 50.2364 226.679 50.0609 226.28 49.9798C227.717 48.5933 227.674 48.6237 229.202 49.363C230.73 50.1023 232.353 50.6526 234.235 50.4101C234.848 50.3394 235.571 50.434 235.791 51.3114C235.021 51.3112 234.332 51.3144 233.6 51.348C232.749 51.3444 231.94 51.3105 231.089 51.3069C231.638 52.1337 232.509 52.4275 233.589 52.6335C236.828 53.2517 240.015 54.0285 242.786 55.5273C244.215 54.8156 245.371 55.0892 246.447 55.906C247.062 56.3819 247.724 56.7633 248.466 57.1481C250.028 57.9853 251.674 58.7617 253.278 59.5685C254.806 60.3078 255.964 61.1279 256.855 62.2585ZM219.337 45.6053C219.585 45.5514 219.836 45.4334 219.874 45.4671C220.027 45.6021 220.137 45.7675 220.284 45.9666C220.118 46.0239 219.909 46.1116 219.79 46.0745C219.638 45.9395 219.528 45.7741 219.337 45.6053ZM240.109 51.589C240.152 51.5586 240.242 51.4338 240.28 51.4676C240.399 51.5047 240.513 51.606 240.632 51.6431C240.59 51.6735 240.542 51.7679 240.461 51.7645C240.342 51.7274 240.228 51.6261 240.109 51.589ZM244.196 46.6163L244.086 46.451L244.324 46.5253L244.196 46.6163ZM246.302 46.6404C246.221 46.637 246.14 46.6336 246.06 46.6302C246.145 46.5695 246.235 46.4447 246.316 46.4481C246.478 46.4549 246.597 46.492 246.754 46.5629C246.592 46.5561 246.426 46.6134 246.302 46.6404ZM246.963 46.4752C246.963 46.4752 246.963 46.4752 247.048 46.4145C247.091 46.3842 247.172 46.3875 247.252 46.3909L246.963 46.4752ZM263.904 49.3403C263.743 49.3335 263.496 49.3874 263.458 49.3537C263.234 49.0871 263.014 48.7563 262.79 48.4897C263.142 48.6653 263.537 48.8104 263.889 48.986C263.97 48.9894 263.914 49.212 263.904 49.3403ZM302.402 47.8371C302.843 47.3412 303.241 46.8756 303.644 46.346C303.975 47.3887 303.804 47.5101 302.402 47.8371ZM305.823 44.7977C305.178 45.3172 304.413 45.7995 303.649 46.2819C302.156 46.1871 300.759 46.45 299.158 47.283C300.438 47.5296 301.318 47.6952 302.279 47.8641C302.027 47.9821 301.818 48.0698 301.609 48.1575C298.497 49.1522 295.155 49.3978 292.039 50.4566C291.374 50.6859 290.532 50.5541 289.762 50.5539C287.404 50.6479 285.035 50.3234 282.688 50.8358C282.441 50.8897 282.117 50.8762 281.884 50.7378C279.609 49.6778 276.764 50.9087 274.546 49.626C274.507 49.5923 274.384 49.6193 274.26 49.6462C273.081 49.6932 271.945 49.7098 270.804 49.7906C270.6 49.8141 270.438 49.8073 270.234 49.8309C269.582 49.8679 268.889 49.9352 268.342 50.2017C267.245 50.7987 266.417 50.4746 265.28 49.9446C265.517 49.4722 265.753 48.9999 266.028 48.5613C265.509 48.4431 264.905 48.3856 264.392 48.2033C263.682 47.9163 263.146 48.0545 262.59 48.4492C260.406 47.811 257.92 47.996 255.935 46.8517C255.664 46.6796 255.003 46.8448 254.552 46.9223C254.019 46.9964 253.482 47.1346 253.193 47.2189C252.298 46.6991 251.73 46.1287 250.969 46.0003C249.409 45.7098 247.764 45.48 246.223 45.4797C244.887 45.4558 243.731 45.1822 242.76 44.5949C241.318 43.7949 239.677 43.501 237.993 43.2374C237.351 43.1462 236.666 43.0853 236.029 42.9299C233.878 42.3896 231.695 41.7514 229.54 41.2751C222.914 39.8396 216.486 37.8981 210.243 35.6427C204.119 33.4245 198.094 30.9533 192.424 28.0469C192.191 27.9085 192.001 27.7397 191.853 27.5406C191.776 27.4731 191.914 27.2538 192.013 27.0008C192.731 27.1595 193.412 27.2845 194.049 27.4399C194.4 27.0688 194.666 26.7584 194.841 26.5729C196.519 26.3539 197.992 26.1586 199.466 25.9632C200.053 25.1198 201.124 25.454 201.984 25.3294C203.866 25.0869 205.565 25.7047 207.339 25.8434C207.5 25.8502 207.671 25.7288 207.837 25.6715C207.903 25.3206 207.969 24.9697 208.039 24.5547C209.176 24.538 210.193 24.4843 211.167 24.4609C211.497 24.9569 211.754 25.3214 212.012 25.6859C215.35 26.051 215.35 26.051 217.047 25.5756C216.232 25.0592 214.968 25.1669 214.134 24.3603C215.56 24.2594 216.649 24.3372 217.71 24.7997C218.814 25.2319 219.786 25.8192 221.198 25.9106C221.197 25.364 221.186 24.9456 221.147 24.3652C221.975 24.6893 222.655 24.8143 223.16 25.1249C224.559 25.9552 226.138 25.9893 227.802 25.9627C228.938 25.9461 230.117 25.8991 231.206 25.9769C233.669 26.1124 236.08 26.4065 238.6 26.3193C240.183 26.2893 241.829 26.5191 243.432 26.7793C244.074 26.8705 244.574 27.2452 245.164 27.495C245.971 26.9823 246.822 26.9859 247.551 27.563C247.18 27.6439 246.767 27.7552 246.396 27.8361C246.905 28.0825 247.281 27.9375 247.589 27.5968C249.97 27.1823 252.709 27.4258 255.169 28.1721C255.564 28.3172 255.959 28.4624 256.315 28.5738C256.52 28.5503 256.681 28.557 256.886 28.5335C258.178 28.0411 259.395 28.0279 260.69 28.6288C261.318 28.9124 262.112 29.1386 262.802 29.1354C265.036 29.0684 267.058 29.6998 269.123 30.3009C270.037 30.5643 270.945 30.8917 271.839 30.865C272.448 30.8583 272.971 30.9124 273.537 30.9362C275.31 31.0749 277.066 31.4701 278.778 31.8956C280.372 32.284 281.799 32.7297 282.943 33.7422C283.705 34.4172 284.647 34.8426 285.95 34.7686C286.558 34.762 287.187 35.0456 287.781 35.2313C288.733 35.5284 289.723 35.8593 290.674 36.1565L290.712 36.1902C291.664 36.4873 292.658 36.7541 293.52 37.1761C296.661 38.5939 299.76 40.0422 302.811 41.5848C303.829 42.0777 304.663 42.8843 305.506 43.5627C306.292 43.9172 306.255 44.43 305.823 44.7977Z" fill="#DEE2E6"/>
</svg>
