<svg width="20" height="20" viewBox="0 0 20 20" fill="none" xmlns="http://www.w3.org/2000/svg">
<path d="M0.765549 17.8192C0.375025 18.2097 0.375025 18.8429 0.765549 19.2334C1.15607 19.6239 1.78924 19.6239 2.17976 19.2334L0.765549 17.8192ZM19.4993 1.49968C19.4993 0.947399 19.0516 0.499684 18.4993 0.499684H9.49928C8.94699 0.499684 8.49928 0.947399 8.49928 1.49968C8.49928 2.05197 8.94699 2.49968 9.49928 2.49968H17.4993V10.4997C17.4993 11.052 17.947 11.4997 18.4993 11.4997C19.0516 11.4997 19.4993 11.052 19.4993 10.4997V1.49968ZM2.17976 19.2334L19.2064 2.20679L17.7922 0.792577L0.765549 17.8192L2.17976 19.2334Z" fill="#EBEEF3"/>
</svg>
