<svg width="20" height="20" viewBox="0 0 20 20" fill="none" xmlns="http://www.w3.org/2000/svg">
<path d="M0.367112 17.8193C-0.0234124 18.2098 -0.0234124 18.8429 0.367112 19.2335C0.757636 19.624 1.3908 19.624 1.78133 19.2335L0.367112 17.8193ZM19.1008 1.49974C19.1008 0.94746 18.6531 0.499745 18.1008 0.499745H9.10084C8.54856 0.499745 8.10084 0.94746 8.10084 1.49974C8.10084 2.05203 8.54856 2.49974 9.10084 2.49974H17.1008V10.4997C17.1008 11.052 17.5486 11.4997 18.1008 11.4997C18.6531 11.4997 19.1008 11.052 19.1008 10.4997V1.49974ZM1.78133 19.2335L18.8079 2.20685L17.3937 0.792638L0.367112 17.8193L1.78133 19.2335Z" fill="#EBEEF3"/>
</svg>
