<svg width="48" height="58" viewBox="0 0 48 58" fill="none" xmlns="http://www.w3.org/2000/svg">
<path d="M23.5128 57.4032C36.4986 57.4032 47.0257 44.5531 47.0257 28.7016C47.0257 12.8501 36.4986 0 23.5128 0C10.527 0 0 12.8501 0 28.7016C0 44.5531 10.527 57.4032 23.5128 57.4032Z" fill="#262626"/>
<path d="M30.7628 17.8865C29.7965 17.8865 29.1523 18.6728 29.1523 19.8523C29.1523 21.0319 29.9576 21.8182 30.7628 21.8182C31.7291 21.8182 32.3733 21.0319 32.3733 19.8523C32.3733 18.8694 31.7291 17.8865 30.7628 17.8865Z" fill="white"/>
<path d="M23.678 20.447C19.974 20.447 16.9141 24.1822 16.9141 28.7036C16.9141 33.2251 19.974 36.9603 23.678 36.9603C27.3821 36.9603 30.442 33.2251 30.442 28.7036C30.442 24.1822 27.3821 20.447 23.678 20.447ZM23.678 34.0115C21.2623 34.0115 19.3298 31.6524 19.3298 28.7036C19.3298 25.7549 21.2623 23.3958 23.678 23.3958C26.0937 23.3958 28.0263 25.7549 28.0263 28.7036C28.0263 31.6524 26.0937 34.0115 23.678 34.0115Z" fill="white"/>
<path d="M28.9927 45.6093H18.0415C13.5322 45.6093 9.82812 41.0878 9.82812 35.5834V22.2156C9.82812 16.7111 13.5322 12.1897 18.0415 12.1897H28.9927C33.502 12.1897 37.2061 16.7111 37.2061 22.2156V35.3868C37.3671 41.0878 33.663 45.6093 28.9927 45.6093ZM18.0415 15.1384C14.8206 15.1384 12.4049 18.2838 12.4049 22.019V35.3868C12.4049 39.3186 14.9816 42.2673 18.0415 42.2673H28.9927C32.2136 42.2673 34.6293 39.122 34.6293 35.3868V22.019C34.6293 18.0872 32.0526 15.1384 28.9927 15.1384H18.0415V15.1384Z" fill="white"/>
</svg>
