<svg width="48" height="48" viewBox="0 0 48 48" fill="none" xmlns="http://www.w3.org/2000/svg">
<path d="M23.5128 47.3737C36.4986 47.3737 47.0257 36.7687 47.0257 23.6868C47.0257 10.605 36.4986 0 23.5128 0C10.527 0 0 10.605 0 23.6868C0 36.7687 10.527 47.3737 23.5128 47.3737Z" fill="#262626"/>
<path d="M30.7628 14.7614C29.7965 14.7614 29.1523 15.4103 29.1523 16.3837C29.1523 17.3572 29.9576 18.0061 30.7628 18.0061C31.7291 18.0061 32.3733 17.3572 32.3733 16.3837C32.3733 15.5725 31.7291 14.7614 30.7628 14.7614Z" fill="white"/>
<path d="M23.678 16.8745C19.974 16.8745 16.9141 19.957 16.9141 23.6885C16.9141 27.42 19.974 30.5026 23.678 30.5026C27.3821 30.5026 30.442 27.42 30.442 23.6885C30.442 19.957 27.3821 16.8745 23.678 16.8745ZM23.678 28.069C21.2623 28.069 19.3298 26.1221 19.3298 23.6885C19.3298 21.255 21.2623 19.3081 23.678 19.3081C26.0937 19.3081 28.0263 21.255 28.0263 23.6885C28.0263 26.1221 26.0937 28.069 23.678 28.069Z" fill="white"/>
<path d="M28.9927 37.6404H18.0415C13.5322 37.6404 9.82812 33.909 9.82812 29.3663V18.334C9.82812 13.7914 13.5322 10.0599 18.0415 10.0599H28.9927C33.502 10.0599 37.2061 13.7914 37.2061 18.334V29.204C37.3671 33.909 33.663 37.6404 28.9927 37.6404ZM18.0415 12.4935C14.8206 12.4935 12.4049 15.0893 12.4049 18.1718V29.204C12.4049 32.4488 14.9816 34.8824 18.0415 34.8824H28.9927C32.2136 34.8824 34.6293 32.2866 34.6293 29.204V18.1718C34.6293 14.927 32.0526 12.4935 28.9927 12.4935H18.0415V12.4935Z" fill="white"/>
</svg>
