<svg width="48" height="48" viewBox="0 0 48 48" fill="none" xmlns="http://www.w3.org/2000/svg">
<path d="M23.5128 47.3737C36.4986 47.3737 47.0257 36.7687 47.0257 23.6868C47.0257 10.605 36.4986 0 23.5128 0C10.527 0 0 10.605 0 23.6868C0 36.7687 10.527 47.3737 23.5128 47.3737Z" fill="#262626"/>
<path d="M36.5578 15.5751C35.7525 15.8996 34.7863 16.2241 33.981 16.3863C34.4642 16.3863 34.9473 15.5751 35.2694 15.2506C35.5915 14.7639 35.9136 14.2772 36.0746 13.6283V13.466H35.9136C34.9473 13.9527 33.981 14.4394 32.8537 14.6017C32.6927 14.6017 32.6927 14.6017 32.6927 14.6017C32.5316 14.4394 32.5316 14.4394 32.3706 14.2772C31.8874 13.9527 31.4043 13.6283 30.9211 13.3038C30.277 12.9793 29.4717 12.8171 28.6665 12.9793C27.8613 12.9793 27.2171 13.3038 26.5729 13.6283C25.9287 13.9527 25.2845 14.4394 24.8014 15.0884C24.3182 15.7374 23.9961 16.3863 23.8351 17.1975C23.674 18.0087 23.674 18.6576 23.8351 19.4688C23.8351 19.6311 23.8351 19.6311 23.674 19.6311C19.4868 18.9821 15.9438 17.522 13.0449 14.2772C12.8839 14.115 12.8839 14.115 12.7229 14.2772C11.4345 16.2241 12.0787 19.1444 13.6891 20.6045C13.8502 20.7668 14.1723 20.929 14.3333 21.2535C14.1723 21.2535 13.206 21.0912 12.2397 20.6045C12.0787 20.6045 12.0787 20.6045 12.0787 20.7668C12.0787 20.929 12.0787 21.0912 12.0787 21.4157C12.2397 23.3626 13.6891 25.1472 15.4607 25.7961C15.6217 25.9584 15.9438 25.9584 16.1048 25.9584C15.6217 26.1206 15.2996 26.1206 14.1723 25.9584C14.0112 25.9584 14.0112 25.9584 14.0112 26.1206C14.8165 28.5542 16.749 29.2032 18.1985 29.6899C18.3595 29.6899 18.5205 29.6899 18.8426 29.6899C18.3595 30.3388 16.749 30.9878 15.9438 31.15C14.4944 31.6367 13.0449 31.799 11.5955 31.6367C11.4345 31.6367 11.2734 31.6367 11.2734 31.6367V31.799C11.5955 31.9612 11.9176 32.1235 12.2397 32.2857C13.206 32.7724 14.1723 33.2591 15.1386 33.4214C20.4531 34.8815 26.2508 33.7458 30.277 29.8521C33.3369 26.7696 34.4642 22.5514 34.4642 18.1709C34.4642 18.0087 34.6252 17.8465 34.7863 17.8465C35.5915 17.1975 36.2357 16.5485 36.8799 15.7374C36.5578 15.8996 36.5578 15.7374 36.5578 15.5751Z" fill="white"/>
</svg>
