<svg width="316" height="165" viewBox="0 0 316 165" fill="none" xmlns="http://www.w3.org/2000/svg">
<path d="M309.196 29.5929C304.102 27.1081 298.634 25.194 292.445 24.1041C291.808 23.9759 291.213 23.8227 290.576 23.6944C289.381 23.4408 288.239 23.0563 287.07 22.9893C286.951 22.9586 286.827 22.9809 286.708 22.9502C284.131 22.7548 281.794 22.1167 279.368 21.5816C277.579 21.1748 275.824 20.8486 273.899 21.0738C273.571 21.1156 273.181 20.9428 272.819 20.9038C271.888 20.898 271.05 20.7364 270.218 20.5218C270.099 20.4912 270.018 20.4884 269.942 20.4327C268.681 20.0175 267.482 19.8168 265.975 19.8973C264.592 19.9555 262.923 20.0304 261.595 19.4537C260.178 19.4312 258.808 19.3307 257.467 18.9127C256.834 18.7316 256.064 18.7315 255.336 18.7063C255.094 18.6979 254.889 18.7173 254.689 18.6839C253.154 18.6307 251.651 18.6583 250.163 18.5271C247.062 18.2871 243.962 18.0471 240.828 17.7262C240.224 17.6788 239.643 17.3668 239.053 17.1606C237.386 18.1377 235.421 17.4329 233.629 17.53C233.557 17.4214 233.528 17.2877 233.414 17.2042C233.143 17.0621 232.867 16.9729 232.591 16.8838L232.42 16.984C232.648 17.1511 232.92 17.2932 233.11 17.4325C230.434 17.4459 227.795 17.4872 225.118 17.5006C224.833 17.5173 224.548 17.5339 224.263 17.5506C222.17 17.372 220.116 17.2212 218.049 17.6803C214.45 17.5822 210.914 18.1496 207.272 18.0766C206.34 18.0708 205.408 18.0651 204.525 18.4325C204.021 18.6273 203.208 18.6523 202.609 18.5519C201.61 18.3846 200.788 18.5154 199.876 18.7491C199.211 18.9383 198.389 19.0691 197.661 19.0439C196.006 18.96 194.476 19.3051 192.985 19.6779C192.362 19.8421 191.706 19.9255 191.051 20.009C189.824 20.1257 188.598 20.2424 187.334 20.3313C187.215 20.3006 187.015 20.2672 186.862 20.1558C184.481 18.6405 185.197 17.8693 186.724 16.622C187.597 15.9093 188.784 15.3136 189.928 14.743C191.58 13.9246 193.38 13.2705 195.075 12.4271C195.626 12.1543 196.596 12.1879 197.185 11.9429C198.362 11.453 199.86 11.4784 201.009 10.8548C201.987 10.3315 203.456 10.2232 204.696 9.94771C205.394 9.83923 206.093 9.73076 206.753 9.59443C206.9 9.30764 206.999 9.09881 207.189 8.78696C207.783 8.94023 208.331 9.17144 208.939 9.16599C209.667 9.19118 210.413 9.00475 211.149 8.92413C211.805 8.84071 212.423 8.72943 213.041 8.61816C214.119 8.3371 214.916 7.56869 216.281 7.72209C216.362 7.72489 216.618 7.57456 216.665 7.4966C216.835 6.94527 217.491 6.86185 218.218 6.88705C219.878 6.91798 221.554 6.28617 223.221 7.16642C223.186 6.63455 223.204 6.42292 223.151 6.10268C225.248 6.22837 227.31 5.82218 229.206 6.86956C229.589 6.19296 229.825 5.80315 230.024 5.38548C231.203 5.34671 232.225 5.24944 233.414 5.55597C234.965 5.90155 236.626 6.38359 238.345 5.72672C238.597 5.6293 239.243 5.6517 239.434 5.79097C240.315 6.37869 241.47 6.15334 242.554 6.27049C243.838 6.4211 245.173 5.98972 246.344 6.50788C246.501 6.56638 246.915 6.47457 247.128 6.3493C247.641 6.04865 248.245 6.09611 248.711 6.32453C249.416 6.61426 250.006 6.82043 250.808 6.45022C251.017 6.37786 251.446 6.57843 251.807 6.61748C252.326 6.71504 252.954 6.94906 253.406 6.88509C255.088 6.65149 256.592 7.07503 258.161 7.20898C258.441 7.24523 258.717 7.33439 259.003 7.31773C263.11 7.16811 267.139 7.91792 271.208 7.74044C271.655 7.72938 272.14 7.74617 272.621 7.81588C274.908 8.08084 277.234 8.37365 279.522 8.6386C282.371 8.97607 285.258 9.34138 288.059 9.75681C290.941 10.175 293.725 10.8021 296.508 11.4291C300.404 12.307 304.267 13.1041 307.931 14.3189C309.625 14.8817 311.277 15.4696 312.525 16.4945C313.169 17.0209 313.936 17.5251 315.252 17.3054C315.36 16.9907 315.469 16.6761 315.535 16.3865C315.845 15.1502 315.913 13.9054 315.98 12.6607C316.013 12.2903 315.964 11.9172 315.792 11.5663C315.553 11.0539 315.066 10.586 314.248 10.2127C314.052 10.1263 313.819 10.0121 313.581 9.95079C309.37 8.50479 305.191 7.13956 300.696 6.16132C299.82 5.97181 298.983 5.81015 298.146 5.64849C295.672 5.19136 293.241 4.70917 290.725 4.2771C289.288 4.01508 287.753 3.96189 286.278 3.67202C284.841 3.41 283.319 3.19808 281.831 3.06693C281.227 3.01948 280.666 2.94698 280.1 2.92738C277.85 2.69028 275.605 2.40027 273.356 2.16317C270.141 1.83956 266.964 1.54381 263.74 1.32602C260.031 1.09144 256.317 0.909761 252.637 0.808844C250.455 0.733261 248.258 0.816396 246.067 0.846629C244.16 0.860205 242.216 0.845937 240.343 0.940275C237.78 1.03727 235.171 1.21223 232.642 1.38998C231.99 1.4205 231.363 1.63759 230.741 1.80177C229.615 2.16079 228.427 2.30536 227.177 2.23552C224.843 2.49964 222.505 2.81667 220.171 3.08079C219.843 3.1225 219.363 3.05279 219.091 2.91072C217.777 2.17534 216.604 2.61231 215.431 3.04929C215.136 3.17176 214.799 3.31929 214.5 3.49466C213.65 3.94284 212.691 4.25455 211.578 4.00373C211.021 3.87832 210.717 4.1066 210.261 4.22347C210.01 4.32089 209.482 4.32915 209.206 4.23999C208.692 4.08953 208.196 3.72743 207.646 4.00022C207.223 4.19786 207.067 4.59047 206.754 4.92458C205.341 4.39802 203.906 4.58711 202.952 5.29702C202.174 5.85381 201.356 5.93163 200.429 5.87298C199.14 5.77529 197.966 5.76116 197.084 6.57969C196.596 7.06691 195.716 6.93029 194.984 6.95801C193.724 6.99398 192.502 7.05781 191.739 7.90699C191.516 8.13807 190.979 8.25215 190.561 8.39688C188.927 9.00364 187.06 9.49617 185.655 10.27C182.85 11.7649 180.116 13.3684 179.647 15.9524C179.545 16.6653 179.243 17.3447 179.54 18.1244C180.167 19.7647 178.934 20.8895 176.445 21.5462C174.782 22.0193 173.191 22.601 171.423 22.8847C171.176 22.9292 170.83 23.1826 170.863 23.2633C171.236 24.0988 169.867 23.9983 169.507 24.4104C169.052 24.9783 168.248 24.8974 167.549 25.0059C166.808 25.1394 166.067 25.273 165.325 25.4065C164.955 25.4733 164.546 25.5122 164.252 25.6346C162.775 26.2999 161.332 27.0459 159.893 27.739C159.513 27.9116 159.158 28.2708 158.792 28.2846C157.651 28.3513 157.239 28.8942 156.746 29.4343C156.295 29.9494 155.702 30.2473 154.68 30.3445C153.492 30.4891 152.709 31.0988 152.283 31.8005C151.711 32.7889 150.824 33.6604 150.052 34.6153C149.151 35.6455 148.437 36.8678 148.65 38.1488C148.893 40.0146 149.136 41.8803 149.422 43.721C148.881 44.3391 148.007 44.6007 147.133 44.8623C140.269 46.88 134.005 49.4491 127.956 52.344C124.742 53.8778 122.532 55.977 120.28 58.1013C118.464 59.8692 118.336 61.8017 118.166 63.7593C118.076 63.8623 118.033 63.8874 117.986 63.9653C116.544 65.1625 114.615 65.8917 112.645 66.646C110.132 67.5672 107.734 68.5721 105.56 69.7969C105.047 70.0976 104.463 70.2896 103.874 70.5345C102.905 70.9521 101.594 71.1189 101.425 72.1213C101.369 72.3051 100.984 72.5306 100.652 72.6252C99.4071 72.9536 98.9049 73.5995 98.8786 74.3681C98.8233 75.003 98.3823 75.4122 97.6988 75.8131C95.2546 77.347 94.3949 79.3072 94.4151 81.4041C94.3946 82.5709 93.5126 83.3894 92.5879 84.233C90.797 84.7812 89.1586 85.4409 87.31 85.7218C84.72 86.1362 82.7595 87.2358 80.4699 87.926C78.1756 88.6691 76.0581 89.7101 73.9879 90.6733C71.875 91.6614 69.881 92.6803 67.8443 93.7241C67.3363 93.9719 66.938 94.3561 66.5062 94.6595C65.7662 95.2442 65.107 95.8316 64.4051 96.4441C64.1869 96.6223 63.8451 96.8227 63.784 97.0594C63.2601 98.421 62.0133 99.7045 62.046 101.192C62.0381 101.748 61.7069 102.294 61.5373 102.845C60.2071 103.224 60.0723 104.307 58.6521 104.789C55.7736 105.724 52.8858 106.765 50.2984 108.081C49.4913 108.504 48.6462 108.9 47.8345 109.376C46.3394 110.253 44.8442 111.13 43.3872 112.034C42.96 112.285 42.609 112.591 42.3389 112.9C39.3767 116.194 37.8176 119.669 38.8648 123.473C39.1434 124.464 39.2984 125.478 38.3125 126.558C37.0724 126.834 35.5425 127.179 34.0125 127.524C33.5564 127.641 32.8625 127.696 32.7632 127.905C32.2715 128.896 31.2299 128.754 30.0509 128.793C28.3824 128.868 26.6375 128.887 25.4519 129.934C25.191 130.137 24.6541 130.251 24.2407 130.343C21.6842 130.838 19.271 131.55 17.068 132.642C15.4158 133.46 13.4587 134.055 11.84 134.955C8.55985 136.778 5.55112 138.743 3.93752 141.447C3.7009 141.837 3.26451 142.193 2.94706 142.58C0.114313 146.25 -0.302652 150.109 0.973267 154.08C1.1027 154.456 1.31757 154.782 1.36617 155.155C1.98622 159.21 5.76412 161.915 10.3399 164.302C11.0779 164.672 11.8816 164.753 12.7221 164.411C13.6527 163.965 14.5406 163.545 15.514 163.075C15.374 162.353 15.0678 161.68 15.1231 161.045C15.1402 160.382 16.2798 159.864 15.8258 159.026C12.9711 158.29 10.4857 157.037 8.13311 155.655C5.62807 154.162 4.84814 152.41 5.60275 150.261C6.14045 148.74 6.7971 147.251 8.01036 145.886C9.18091 144.547 10.6183 143.403 12.327 142.401C14.5103 141.07 16.8414 139.904 19.1863 138.579C19.1193 138.417 19.0615 138.15 18.9702 137.802C25.5895 134.874 33.0302 133.221 40.6674 132.106C41.1675 132.415 41.5151 132.613 41.8963 132.891C42.2242 132.849 42.633 132.81 42.9609 132.769C43.9066 132.616 44.6676 132.722 45.2301 133.245C45.6448 133.605 46.1114 133.833 46.7869 133.989C47.9002 134.24 49.0134 134.491 50.0182 135.056C50.8278 135.535 52.3117 135.719 53.4861 135.734C54.9884 135.706 56.306 135.937 57.5625 136.405C58.3097 136.67 59.0661 136.829 60.0072 136.729C60.8247 136.651 61.7474 136.763 62.5465 136.896C63.3456 137.03 63.9877 137.106 64.6331 136.677C64.8467 136.552 65.3363 136.515 65.7023 136.502C69.5015 136.633 73.304 136.261 77.0591 135.966C77.5487 135.93 77.9956 135.919 78.4806 135.936C81.0915 136.212 83.5777 136.059 85.9239 135.185C86.6363 134.918 87.022 135.144 87.1481 136.024C88.1424 136.244 89.1262 136.119 90.0904 135.754C90.6365 135.534 91.2253 135.289 91.8096 135.097C91.619 134.958 91.4666 134.847 91.2333 134.732C91.4896 134.582 91.7078 134.404 91.9976 134.334C92.3255 134.293 92.687 134.332 93.053 134.318C94.1236 134.594 94.8879 134.196 95.6141 133.77C96.2976 133.369 96.1774 132.887 96.0999 132.38C95.9935 131.74 95.8825 131.152 95.776 130.512C95.4673 128.935 94.4935 127.549 92.9781 126.329C92.5254 125.941 91.8163 125.705 91.1453 125.496C88.5377 124.715 85.7362 124.3 82.8735 124.121C80.415 123.957 77.9473 123.898 75.4796 123.839C74.7521 123.814 74.0108 123.947 73.2787 123.975C72.7082 124.008 72.1332 124.094 71.572 124.022C70.2451 123.896 68.9472 123.904 67.6355 124.071C67.184 124.135 66.6517 124.196 66.214 124.102C64.4679 123.67 63.0142 124.07 61.7845 124.691C58.617 124.29 55.5985 124.503 52.6806 124.96C51.1599 125.199 49.6576 125.226 48.198 125.229C46.7384 125.231 45.6712 124.452 44.8037 123.705C44.2031 123.154 44.3819 122.496 44.7178 121.898C45.5315 120.467 46.5404 119.122 48.1729 118.064C49.63 117.159 51.1632 116.31 52.7438 115.383C52.4908 115.029 52.3141 114.731 52.0611 114.378C52.4837 114.18 53.0863 113.777 53.3623 113.866C55.0184 114.401 55.9523 113.451 57.2306 113.204C57.3968 113.156 57.6242 112.872 57.5953 112.739C57.5421 112.418 57.37 112.068 57.8688 111.926C58.2868 111.781 58.7718 111.798 59.2233 111.734C60.0454 111.603 60.8629 111.525 61.7278 111.369C62.8825 111.144 63.9333 111.18 64.8908 111.824C64.8757 111.531 64.8514 111.345 64.8501 110.894C65.8549 111.459 66.7118 111.86 67.317 112.359C67.6173 112.635 67.3715 113.13 67.3636 113.687C68.6825 114.37 70.2485 115.008 71.9808 115.598C73.4752 116.128 74.9222 116.735 76.3693 117.342C78.0877 118.092 79.9771 118.741 82.1596 118.816C83.2912 118.856 84.3664 119.079 85.4842 119.277C88.0386 119.736 90.4984 120.352 93.204 120.473C94.0932 120.503 94.9928 120.879 95.7873 121.066C96.6095 120.935 97.4408 120.699 98.2492 120.727C100.921 120.766 103.584 120.912 106.252 121.004C108.068 121.093 109.889 121.13 111.456 120.362C111.712 120.211 112.159 120.2 112.568 120.161C114.445 120.014 116.318 119.92 118.234 119.8C119.09 119.75 119.581 120.165 120.204 120.452C120.714 120.656 121.322 120.65 121.606 120.183C121.696 120.08 121.71 119.921 121.8 119.818C121.89 119.715 122.142 119.617 122.261 119.648C123.735 119.938 124.45 118.716 125.938 118.847C128.031 119.025 129.793 118.343 131.493 117.898C132 117.199 130.727 117.394 130.867 116.709C131.612 116.071 132.232 115.005 134.356 114.813C134.487 115.64 133.085 115.91 132.907 116.567C133.369 116.849 133.796 116.598 134.133 116.451C134.636 116.256 135.063 116.005 135.372 115.724C137.24 113.825 138.066 111.784 137.451 109.534C137.302 108.919 137.191 108.331 137.203 107.721C137.176 106.632 136.665 105.527 136.476 104.432C136.239 102.965 135.147 101.998 132.907 101.656C132.707 101.622 132.593 101.538 132.441 101.427C132.364 101.371 132.369 101.318 132.293 101.263C132.453 100.817 133.005 100.996 133.409 101.01C134.622 101.052 135.868 101.174 137.123 101.191C137.57 101.18 138.026 101.063 138.477 100.999C138.395 100.545 138.652 100.395 139.332 100.498C140.244 100.265 141.133 100.295 142.008 100.485C141.125 100.852 140.203 100.741 139.327 100.551C139.028 100.727 138.772 100.877 138.473 101.052C138.935 101.334 139.316 101.612 140.095 101.506C141.16 101.384 142.22 101.315 143.285 101.192C142.98 100.97 142.675 100.747 142.37 100.524C142.974 100.571 143.535 100.644 144.139 100.691C143.883 100.842 143.622 101.045 143.366 101.195C143.87 101.451 144.403 101.39 144.901 101.248C144.673 101.081 144.406 100.886 144.22 100.694C144.658 100.789 144.972 100.906 144.944 101.223C145.449 101.48 146.015 101.499 146.561 101.279C148.662 101.352 150.601 100.968 152.587 100.506C153.29 100.345 154.036 100.158 154.764 100.184C157.274 100.217 159.675 100.115 162.003 99.4526C163.58 99.0296 165.334 98.9046 166.983 98.5902C168.095 98.3899 169.131 98.1339 169.646 97.3293C169.926 96.9144 170.544 96.8031 171.318 96.7504C174.912 96.4503 176.582 95.4203 177.265 93.162C177.77 91.5609 177.789 89.9431 177.646 88.3196C177.631 88.0272 177.374 87.7264 177.278 87.4312C177.148 87.0553 176.819 86.6459 176.966 86.3591C177.41 85.4458 176.79 84.6548 176.621 83.7999C176.38 82.8364 175.499 82.2487 174.324 81.7834C173.148 81.3182 171.801 80.9531 170.54 80.538C172.151 80.1958 172.151 80.1958 173.473 80.3742C174.876 80.5555 176.237 80.7618 177.64 80.943C178.401 81.049 179.086 81.0992 179.697 80.5898C179.958 80.3865 180.733 80.3338 181.261 80.3255C182.193 80.3313 183.158 80.4178 184.128 80.4513C186.311 80.5269 188.498 80.5496 190.67 80.2799C191.449 80.1742 192.367 80.3387 193.176 80.3667C194.146 80.4003 195.131 80.7262 196.109 80.2029C196.408 80.0275 197.012 80.075 197.497 80.0918C200.373 80.1118 203.225 79.9452 206.015 79.5642C208.31 79.2723 210.515 78.6322 212.982 78.6911C213.791 78.7191 214.627 78.4297 215.42 78.1653C216.465 77.8034 217.424 77.4917 218.642 77.4808C218.927 77.4642 219.293 77.4503 219.464 77.3501C220.883 76.4175 222.913 76.3817 224.618 75.8835C226.613 75.3158 228.543 75.0377 230.707 75.3249C231.587 75.4615 232.566 75.3893 233.426 75.2864C233.792 75.2726 234.186 74.9413 234.371 74.6823C234.693 74.2424 235.216 74.2871 235.753 74.173C236.166 74.0812 236.593 73.8306 236.735 73.5967C236.972 73.2069 237.051 72.7586 237.169 72.3382C237.535 70.4669 237.777 68.618 237.534 66.7522C237.519 66.4598 237.546 66.1424 237.583 65.7191C238.966 65.6609 240.168 65.3576 241.189 64.8092C241.911 64.4362 242.728 64.3584 243.622 64.3362C245.324 64.3421 246.993 64.2672 248.68 63.9807C249.792 63.7804 251.109 64.0118 252.203 64.0231C253.695 63.6503 255.068 63.2467 256.146 62.9657C257.111 63.0522 256.329 63.6619 257.184 63.6119C257.797 63.5536 258.491 63.498 258.528 63.0747C258.541 62.4649 258.587 61.9358 259.385 61.6185C260.681 61.1593 262.025 60.6221 263.628 60.8368C263.828 60.8702 263.994 60.8229 264.318 60.8341C265.422 59.7845 266.251 58.6457 266.409 57.298C266.702 54.8671 266.952 52.4612 266.797 50.0413C266.752 49.1641 265.405 46.9417 264.448 46.2983C263.528 45.6827 262.528 45.0643 261.523 44.4989C261.252 44.3568 260.895 44.2648 260.495 44.1979C259.977 44.1004 259.288 44.103 258.859 43.9025C257.926 43.4456 257.04 42.9108 256.192 42.4038C256.553 41.9918 257.038 42.0086 257.471 42.1562C259.365 42.7525 261.617 42.4856 263.507 43.1347C263.859 43.2796 264.51 43.2491 264.924 43.1573C265.874 42.9514 266.705 42.7148 267.506 43.2998C267.658 43.4112 268.271 43.3528 268.599 43.3111C269.093 43.2221 269.644 42.9493 270.129 42.9661C271.018 42.9969 271.865 43.0527 272.754 43.0835C273.52 43.1366 274.204 43.1868 274.927 43.2649C275.369 43.3068 275.708 43.6104 276.174 43.8388C276.943 43.3878 277.817 43.1262 278.978 43.2991C279.901 43.4106 280.88 43.3384 281.812 43.3441C282.297 43.3609 282.796 43.219 283.233 43.3138C285.593 43.6873 287.974 43.3452 290.289 43.2928C291.71 43.2624 293.107 43.0454 294.495 42.9343C294.985 42.8982 295.484 42.7563 295.883 42.8232C297.163 43.0267 298.36 42.7763 299.515 42.5509C302.808 41.9751 306.144 41.3742 308.902 39.9574C310.047 39.3867 310.791 38.7492 310.912 37.8247C311.052 36.6886 311.315 35.5302 311.411 34.4191C311.453 33.943 311.456 33.4389 311.417 32.96C311.392 32.7734 311.368 32.5868 311.301 32.4253C311.479 31.317 310.677 30.281 309.196 29.5929ZM212.631 8.20595C212.669 8.23381 212.788 8.26446 212.826 8.29232C212.897 8.40093 212.931 8.4817 212.96 8.61537C212.803 8.55686 212.684 8.5262 212.57 8.44264C212.531 8.41478 212.621 8.31177 212.631 8.20595ZM204.481 9.62187C204.519 9.64972 204.643 9.62746 204.638 9.68036C204.671 9.76112 204.667 9.81404 204.658 9.91985C204.629 9.78619 204.552 9.73048 204.481 9.62187ZM16.4418 139.837C16.1001 140.037 15.7156 140.263 15.2884 140.513C15.1879 140.271 15.0781 140.135 15.1255 140.057C15.3148 139.745 15.6565 139.544 16.1369 139.614C16.2559 139.645 16.4418 139.837 16.4418 139.837ZM31.1862 133.449C30.9437 133.44 30.6631 133.404 30.4252 133.343C30.3871 133.315 30.439 133.184 30.4528 133.025C30.7334 133.062 30.9759 133.07 31.2138 133.131C31.29 133.187 31.1954 133.343 31.1862 133.449ZM78.2655 130.489C77.6385 130.706 77.0773 130.634 76.4872 130.427C77.5656 130.146 77.6037 130.174 78.2655 130.489ZM71.1522 130.243C71.1141 130.215 71.2041 130.112 71.2468 130.087C71.5794 129.992 71.9974 129.847 72.278 129.884C73.5621 130.034 74.8416 130.238 76.1638 130.416C74.7377 130.499 73.3544 130.558 71.8902 130.613C71.7285 130.608 71.486 130.599 71.3289 130.541C71.2527 130.485 71.1857 130.323 71.1522 130.243ZM69.2687 129.992C69.2687 129.992 69.4685 130.025 69.3404 130.1L69.2687 129.992ZM72.4307 135.116C72.5923 135.122 72.754 135.127 72.9111 135.186C72.9111 135.186 72.9018 135.292 72.8972 135.344C72.7356 135.339 72.5739 135.333 72.4168 135.275C72.3787 135.247 72.4261 135.169 72.4307 135.116ZM124.981 109.819C124.183 110.136 123.381 110.506 122.549 110.743C120.131 111.508 117.685 112.14 114.883 111.724C114.441 111.682 113.913 111.691 113.5 111.783C112.459 112.091 111.489 112.058 110.405 111.941C109.844 111.868 109.273 111.902 108.665 111.907C103.787 112.056 98.913 111.702 94.138 111.139C90.5281 110.695 86.7336 110.511 83.4872 109.151C83.0587 108.951 82.3694 108.953 81.8509 108.856C80.1856 108.427 78.4257 108.153 76.4358 107.262C79.7001 106.552 82.4517 106.144 85.2704 105.896C86.9863 105.743 88.6976 105.643 90.4043 105.596C92.4344 105.561 94.4263 105.497 96.3998 105.645C98.4541 105.796 100.504 105.999 102.604 105.621C103.426 105.49 104.454 105.791 105.372 105.956C105.81 106.05 106.2 106.223 106.714 106.374C107.764 105.959 108.79 105.809 109.994 105.956C113.594 106.506 117.256 106.818 120.843 107.526C121.761 107.691 122.684 107.802 123.597 108.02C124.782 108.379 125.425 108.905 124.981 109.819ZM78.1835 104.881C78.2308 104.803 78.3208 104.7 78.3681 104.622C78.4871 104.653 78.6869 104.686 78.8058 104.717C78.6777 104.792 78.5876 104.895 78.4214 104.943C78.3832 104.915 78.2643 104.884 78.1835 104.881ZM91.6058 103.436C91.7294 103.413 91.8956 103.366 92.0192 103.344L92.1717 103.455C92.0481 103.478 91.8818 103.525 91.7583 103.547C91.7583 103.547 91.6821 103.491 91.6058 103.436ZM110.544 98.7053C108.519 99.1393 106.825 98.5765 105 98.5929C104.633 98.6067 104.191 98.5649 103.859 98.6595C102.686 99.0965 101.359 98.9709 100.232 98.8788C98.943 98.7811 97.6924 98.7113 96.5712 99.0174C94.5378 99.5573 92.4881 99.3536 90.4581 99.3894C89.0366 99.4198 87.6197 99.3973 86.189 99.5335C84.0216 99.7503 81.8877 100.048 79.7538 100.345C79.4259 100.387 79.2412 100.646 79.023 100.824C78.8949 100.899 78.7575 101.08 78.6767 101.078C77.3544 100.899 76.32 101.606 75.1121 101.511C73.619 101.433 72.298 101.706 70.9008 101.923C70.5729 101.964 70.2068 101.978 69.7218 101.961C69.8382 101.09 70.688 100.642 71.4569 100.191C74.699 98.3395 78.0934 96.5997 81.9696 95.3808C85.0525 94.4262 88.1735 93.4995 91.1848 92.4363C92.6905 91.9047 94.135 91.6098 95.866 91.7493C96.9943 92.2925 98.3697 92.7912 98.9716 93.7938C99.0814 93.9303 99.3101 94.0974 99.5479 94.1587C102.646 95.3539 106.058 96.215 109.474 97.0232C109.911 97.1179 110.401 97.0818 110.848 97.0707C113.078 97.0684 113.672 97.2216 116.196 98.503C114.247 98.5417 112.24 98.3129 110.544 98.7053ZM225.886 18.4559C226.248 18.4949 226.609 18.534 226.971 18.573C226.881 18.6761 226.905 18.8626 226.824 18.8598C226.496 18.9015 226.135 18.8625 225.769 18.8763C225.787 18.6647 225.848 18.428 225.886 18.4559ZM229.605 20.442C229.643 20.4699 229.596 20.5478 229.591 20.6007C229.468 20.623 229.259 20.6954 229.14 20.6647C228.902 20.6034 228.712 20.4641 228.516 20.3778C228.606 20.2748 228.782 20.1216 228.782 20.1216C229.058 20.2108 229.291 20.325 229.605 20.442ZM213.935 18.838L213.84 18.9939L213.688 18.8825L213.935 18.838ZM154.72 37.8018C155.938 36.3847 157.313 35.026 159.154 33.8958C160.654 32.966 162.306 32.1476 163.963 31.2763C164.177 31.151 164.462 31.1344 164.714 31.037C167.55 30.1269 170.305 29.214 173.06 28.3012C173.096 27.8779 173.162 27.5883 173.237 27.1929C174.607 27.2934 176.048 27.5025 176.863 26.5225C176.953 26.4194 177.362 26.3805 177.647 26.3639C178.711 26.2415 179.743 26.0385 180.755 26.047C182.662 26.0334 184.478 26.1229 186.055 27.1061C187.131 27.7802 188.635 28.2037 189.668 28.9029C190.893 29.7413 192.372 29.9782 193.88 30.3489C194.594 30.5328 195.359 30.5858 196.069 30.8227C197.763 31.3855 199.41 32.0262 201.108 32.5361C204.82 33.673 208.399 34.9378 212.343 35.7378C213.855 36.0555 215.411 36.3481 216.963 37.1448C216.184 37.2505 215.461 37.1724 215.2 37.3757C213.853 38.4169 212.591 38.0017 211.311 37.3471C210.92 37.1744 210.449 36.9989 210.002 37.0099C209.555 37.021 209.09 37.2437 208.506 37.4357C207.097 36.8562 205.471 36.9061 203.722 36.9781C200.503 37.1586 197.27 37.0466 194.095 37.202C192.792 37.263 191.619 37.7 190.259 37.4936C189.94 37.4295 189.479 37.5993 189.223 37.7496C188.335 38.17 187.347 38.348 186.233 38.0972C185.558 37.9411 184.94 38.0524 184.318 38.2166C183.819 38.3585 183.244 38.4447 182.673 38.478C180.834 38.6531 178.923 38.7196 177.074 39.0005C175.843 39.1702 174.693 39.3426 173.433 39.3786C172.701 39.4063 171.765 39.4535 171.295 39.729C170.355 40.2802 169.333 40.3775 168.188 40.4971C167.166 40.5943 166.211 40.8531 165.18 41.0562C163.982 41.3066 162.856 41.6656 161.63 41.7824C160.404 41.8991 159.187 41.91 158.161 42.5113C157.563 42.8621 156.674 42.8313 156.064 42.3856C154.378 41.2659 152.915 39.9151 154.72 37.8018ZM222.218 41.0415C222.261 41.0165 222.456 41.1028 222.575 41.1335C222.532 41.1585 222.447 41.2086 222.366 41.2059C222.243 41.2281 222.081 41.2225 221.919 41.2169C222.005 41.1668 222.133 41.0916 222.218 41.0415ZM203.817 40.5369C203.855 40.5648 203.932 40.6205 203.927 40.6734C203.927 40.6734 203.803 40.6957 203.761 40.7207C203.723 40.6929 203.689 40.6121 203.651 40.5843C203.651 40.5843 203.775 40.562 203.817 40.5369ZM197.143 40.8365C197.21 40.998 197.32 41.1345 197.306 41.2932C197.297 41.399 197.168 41.4742 197.078 41.5772C196.807 41.4351 196.531 41.346 196.26 41.2039C196.307 41.1259 196.354 41.048 196.397 41.0229C196.687 40.9533 196.934 40.9088 197.143 40.8365ZM172.387 44.4103C171.713 44.7053 171.166 44.4741 170.58 44.215C171.222 44.2903 171.783 44.3628 172.387 44.4103ZM160.939 42.7402L160.759 42.9462C160.72 42.9183 160.687 42.8376 160.649 42.8097C160.734 42.7596 160.858 42.7374 160.939 42.7402ZM173.543 59.5478C175.135 59.4172 176.306 59.9354 177.473 60.5065C174.945 61.1353 173.951 60.9152 173.543 59.5478ZM169.412 58.1046C168.381 58.3077 167.847 57.9178 167.271 57.5529C168.61 57.0686 169.777 57.6397 170.975 57.8404C171.137 57.846 171.237 58.0883 171.381 58.3055C170.577 58.2246 169.906 58.0156 169.412 58.1046ZM139.873 53.2874L139.707 53.3347C139.745 53.3625 139.754 53.2567 139.873 53.2874ZM125.242 62.5715C126.492 60.784 128.247 59.2528 130.811 58.2006C131.609 57.8833 132.259 57.4017 132.942 57.0008C133.241 56.8255 133.46 56.6473 133.797 56.4998C136.651 55.3781 139.505 54.2564 142.397 53.1625C143.447 52.7478 144.573 52.3888 145.58 51.9991C146.392 50.1168 147.062 49.8747 149.555 50.5713C149.636 50.5741 149.712 50.6298 149.793 50.6326C150.392 50.733 150.582 50.4211 150.766 50.1622C151.774 50.2236 152.801 50.0735 153.823 49.9762C154.517 49.9206 155.449 49.9263 155.991 50.2105C157.506 50.9793 159.528 51.5004 159.931 52.9207C161.956 52.9377 163.527 53.5228 165.14 54.0828C168.134 55.0886 168.6 55.317 169.568 56.3058C168.699 56.5145 167.829 56.7232 166.993 57.0126C166.533 57.1824 166.918 57.408 167.104 57.6002C166.488 58.1626 165.699 58.3741 164.633 58.0453C164.357 57.9561 164.167 57.8169 163.886 57.7806C163.767 57.7499 163.596 57.8502 163.392 57.8696C163.155 58.2594 164.174 58.6662 163.163 59.1087C162.882 59.0725 162.516 59.0863 162.202 58.9693C160.184 58.3953 158.058 58.136 155.919 58.0353C155.191 58.0101 154.502 58.0128 154.18 58.4527C153.635 59.1237 152.474 58.9509 151.795 59.2988C150.656 59.8166 149.841 59.3904 148.89 59.1451C148.733 59.0866 148.486 59.1311 148.324 59.1255C147.987 59.2731 147.693 59.3955 147.355 59.5431C146.975 59.7156 146.596 59.8882 146.254 60.0887C145.229 60.69 144.773 60.8068 143.516 60.3388C142.145 59.7872 141.042 59.8816 139.889 60.5581C139.675 60.6834 139.462 60.8086 139.082 60.9812C136.399 60.5965 133.724 61.061 131.077 61.6592C130.084 61.8902 129.13 62.149 128.137 62.3799C127.144 62.6109 126.155 62.7889 125.162 63.0198C125.271 62.7052 125.237 62.6244 125.242 62.5715ZM164.862 61.476C164.452 61.0638 164.004 60.6238 163.365 60.0444C164.211 60.1003 164.815 60.1477 165.338 60.1924C166.235 59.6662 167.114 59.3517 168.152 59.998L166.059 61.2256C165.945 61.142 165.792 61.0306 165.678 60.9471C165.422 61.0974 165.123 61.2728 164.862 61.476ZM161.209 61.0576C160.981 60.8905 160.752 60.7234 160.523 60.5563C161.217 60.5007 161.255 60.5286 161.209 61.0576ZM155.958 61.7779C155.825 61.906 155.102 61.8279 154.707 61.7081C154.031 61.552 153.365 61.2901 152.537 61.0227C153.719 60.4799 154.543 60.8002 155.362 61.1735C155.633 61.3156 156.403 61.3157 155.958 61.7779ZM145.086 79.0993C145.794 78.885 146.436 78.9603 147.212 79.3586C146.171 79.6675 145.577 79.5143 145.086 79.0993ZM102.119 80.4504C103.908 78.9999 105.891 77.6358 107.875 76.2716C109.431 75.1581 111.135 74.2088 113.106 73.4545C113.776 73.2124 114.331 72.8867 114.924 72.5888C116.619 71.7454 118.496 71.147 120.54 70.9525C121.645 71.7602 123.002 72.4706 123.737 73.3451C124.576 74.409 126.307 74.5485 127.417 75.3033C127.532 75.3869 127.684 75.4983 127.841 75.5568C128.155 75.6738 128.546 75.8466 128.869 75.8578C130.414 75.8051 131.533 76.4542 132.889 76.7134C133.607 76.8444 134.325 76.9754 135.086 77.0814C136.646 77.3211 138.387 77.3548 139.724 77.8257C141.257 78.3829 143.143 78.1298 144.581 78.843C144.738 78.9015 144.853 78.985 144.967 79.0686C143.652 79.7395 142.317 80.1708 140.652 79.7417C139.498 80.4182 138.286 80.3762 136.991 79.8803C136.363 79.6463 135.834 79.2034 134.969 79.3592C133.498 80.4226 133.46 80.3948 131.733 79.7512C131.418 79.6342 131.1 79.5701 130.662 79.4753C130.459 79.9459 130.389 80.2884 130.19 80.7061C127.398 80.1848 124.609 81.0169 121.864 80.4177C121.486 81.0414 120.926 81.4201 119.947 81.4923C118.354 81.6229 116.686 81.6977 115.198 82.0177C114.248 82.2236 113.388 82.3265 112.474 82.1091C111.599 81.9196 110.724 81.7301 109.806 81.5656C108.675 81.9775 107.473 82.2808 107.181 83.3055C105.983 83.1048 104.903 82.9348 103.785 82.7369C102.705 82.5668 101.575 82.9787 100.428 82.6471C100.587 81.7505 101.375 81.0879 102.119 80.4504ZM146.623 84.7245C145.711 84.9583 144.932 85.064 144.236 84.6684C144.982 84.482 145.733 84.2426 146.623 84.7245ZM143.22 83.3065C143.224 83.2536 143.186 83.2258 143.153 83.145C143.195 83.12 143.281 83.0698 143.319 83.0977C143.4 83.1005 143.476 83.1562 143.514 83.1841L143.22 83.3065ZM138.379 83.0328C138.423 83.4588 138.01 83.5506 137.648 83.5116C137.168 83.4419 136.568 83.3415 136.904 82.7429C137.423 82.8404 137.941 82.938 138.379 83.0328ZM135.048 83.5807C134.767 83.5445 134.529 83.4832 134.329 83.4497C134.334 83.3968 134.381 83.3188 134.424 83.2938C134.59 83.2465 134.795 83.227 134.914 83.2577C134.995 83.2605 134.981 83.4192 135.048 83.5807ZM131.067 83.2041C131.177 83.3405 131.017 83.7861 130.893 83.8083C130.399 83.8973 129.876 83.8527 129.101 83.9054C129.342 83.4627 129.374 83.0924 129.669 82.9699C130.096 82.7194 130.733 82.8476 131.067 83.2041ZM126.871 83.9078C126.824 83.9858 126.572 84.0832 126.453 84.0525C126.054 83.9856 125.659 83.8658 125.302 83.7739C125.354 83.643 125.406 83.5121 125.457 83.3813C125.857 83.4482 126.299 83.49 126.694 83.6098C126.775 83.6126 126.88 83.802 126.871 83.9078ZM122.849 84.0073C122.802 84.0853 122.703 84.2941 122.664 84.2663C122.422 84.2579 122.184 84.1966 121.946 84.1353C122.155 84.0629 122.364 83.9905 122.654 83.921C122.692 83.9488 122.849 84.0073 122.849 84.0073ZM121.861 84.1854C121.757 84.4471 121.615 84.681 121.554 84.9177C120.793 84.8117 120.074 84.6807 119.076 84.5135C120.072 83.7785 120.885 83.7536 121.861 84.1854ZM117.197 84.2096C117.136 84.4463 117.036 84.6551 116.971 84.9447C116.614 84.8527 116.333 84.8165 116.181 84.7051C115.914 84.5101 115.861 84.1899 116.274 84.098C116.483 84.0257 116.835 84.1705 117.197 84.2096ZM110.938 85.3195C110.81 85.3947 110.639 85.4949 110.558 85.4921C110.24 85.428 109.964 85.3388 109.688 85.2497C110.016 85.208 110.344 85.1663 110.671 85.1246C110.752 85.1274 110.862 85.2638 110.938 85.3195ZM99.9332 84.1424L99.6953 84.0811L99.8235 84.0059L99.9332 84.1424ZM103.91 86.4293C103.914 86.3764 103.919 86.3235 103.962 86.2985L104.209 86.2539C104.085 86.2762 103.957 86.3514 103.91 86.4293ZM146.812 101.182C146.784 101.048 146.716 100.887 146.688 100.753C146.849 100.759 147.011 100.764 147.173 100.77C147.035 100.951 146.945 101.054 146.812 101.182ZM144.209 98.4914C143.924 98.5081 143.558 98.5219 143.272 98.5386C143.192 98.5358 143.077 98.4522 143.077 98.4522C143.125 98.3743 143.219 98.2183 143.3 98.2211C143.585 98.2045 143.947 98.2435 144.189 98.2519C144.223 98.3327 144.218 98.3856 144.209 98.4914ZM159.604 93.4791C159.485 93.4484 159.285 93.4149 159.166 93.3843C159.166 93.3843 159.175 93.2785 159.218 93.2534C159.38 93.259 159.541 93.2646 159.665 93.2424C159.66 93.2953 159.613 93.3732 159.604 93.4791ZM171.255 92.8212C170.809 93.2834 170.149 93.4197 169.312 93.258C169.704 92.4756 169.704 92.4756 171.035 92.5483C171.074 92.5761 171.141 92.7377 171.255 92.8212ZM169.723 90.8578C167.998 91.1164 167.998 91.1164 166.997 91.9043C166.608 92.1827 166.376 92.5196 165.987 92.798C165.769 92.9762 165.47 93.1515 165.137 93.2461C165.014 93.2684 164.619 93.1486 164.547 93.04C164.212 92.2324 163.759 91.8452 162.785 91.8645C161.934 91.8616 161.111 91.9923 160.213 92.0673C157.071 92.3035 154.058 92.9155 150.848 92.539C150.406 92.4972 149.912 92.5862 149.46 92.6502C148.072 92.7613 146.642 92.8975 145.215 92.9808C144.36 93.0307 143.423 93.0779 142.672 92.8661C141.168 92.4426 139.699 92.5509 138.168 92.4448C135.505 92.2995 132.838 92.2072 130.184 91.9561C127.649 91.7356 125.124 91.4094 122.56 91.0552C120.677 90.8043 118.789 90.6062 117.047 90.1214C114.83 89.5139 112.608 88.9594 110.329 88.5886C109.968 88.5495 109.53 88.4548 109.344 88.2626C108.786 87.6861 107.888 87.7611 107.042 87.7053C106.718 87.6941 106.404 87.5771 105.572 87.3625C107.178 87.0732 108.247 86.8979 109.316 86.7227C109.891 86.6365 110.471 86.4973 110.994 86.542C111.436 86.5838 111.817 86.8624 112.327 87.0658C112.254 86.506 112.324 86.1635 113.094 86.1637C113.38 86.147 113.66 86.1833 113.903 86.1917C114.957 85.724 116.169 85.766 117.358 85.6214C118.831 85.4602 120.295 85.4048 121.558 84.8648C122.286 84.89 123.009 84.9681 123.703 84.9125C127.501 84.593 131.251 84.3514 135.093 84.4579C137.004 84.3914 138.92 84.272 140.822 84.3114C141.915 84.3227 143.065 84.1502 144.079 84.6099C143.58 84.7518 143.039 84.9188 142.54 85.0607C143.155 85.4535 143.891 85.3729 144.619 85.3981C147.286 85.4904 149.954 85.5828 152.305 86.5133C153.324 86.9201 154.489 87.04 155.31 86.4582C156.418 86.7619 157.323 87.0851 158.317 87.3052C160.51 87.7261 162.755 88.0161 164.948 88.437C166.974 88.9052 168.787 89.4987 169.723 90.8578ZM150.32 79.0417C150.287 78.961 150.253 78.8802 150.262 78.7744C150.424 78.78 150.543 78.8106 150.705 78.8162L150.772 78.9778C150.605 79.0251 150.444 79.0195 150.32 79.0417ZM155.252 79.6636C155.091 79.658 154.891 79.6246 154.729 79.619C154.772 79.5939 154.819 79.5159 154.862 79.4909C155.024 79.4965 155.223 79.5299 155.385 79.5355C155.338 79.6135 155.333 79.6664 155.252 79.6636ZM155.199 77.486C156.349 77.3136 156.349 77.3136 157.044 77.7091C156.402 77.6338 156.041 77.5948 155.199 77.486ZM161.319 77.9633C163.044 77.7046 164.505 78.1532 165.975 78.496C163.237 78.7461 162.638 78.6458 161.319 77.9633ZM168.895 80.3483C168.728 80.3956 168.524 80.4151 168.362 80.4095C168.243 80.3788 168.172 80.2702 168.057 80.1867C168.224 80.1394 168.433 80.067 168.552 80.0976C168.751 80.1311 168.78 80.2648 168.895 80.3483ZM168.914 78.7305C168.667 78.775 168.343 78.7638 168.101 78.7554C168.02 78.7526 167.953 78.591 167.881 78.4824C168.29 78.4435 168.661 78.3768 169.193 78.3156C169.051 78.5495 169.037 78.7082 168.914 78.7305ZM171.658 78.8785L171.71 78.7477L171.867 78.8062L171.658 78.8785ZM184.161 78.6747C184.033 78.7499 183.905 78.8251 183.781 78.8473C183.739 78.8724 183.629 78.7359 183.514 78.6523C183.681 78.605 183.842 78.6106 184.009 78.5633L184.161 78.6747ZM187.49 79.0819C187.448 79.107 187.286 79.1014 187.248 79.0735C187.172 79.0178 187.181 78.912 187.109 78.8034C187.271 78.809 187.433 78.8146 187.594 78.8202C187.547 78.8981 187.538 79.0039 187.49 79.0819ZM196.765 78.7132C199.009 78.5521 200.963 78.4606 203.003 78.7701C200.451 79.2124 198.464 79.2231 196.765 78.7132ZM204.885 78.5699C204.724 78.5643 204.605 78.5337 204.448 78.4752C204.614 78.4278 204.737 78.4056 204.904 78.3583C204.985 78.3611 205.065 78.3639 205.184 78.3945C205.056 78.4697 204.966 78.5727 204.885 78.5699ZM230.807 73.7098C230.275 73.771 229.881 74.1023 229.339 74.2693C228.841 74.4112 228.294 74.6311 227.767 74.6394C225.979 74.6836 224.221 74.8615 222.491 75.173C220.718 75.5097 218.989 75.8212 217.264 76.0799C216.318 76.2329 215.086 75.9514 214.798 76.9232C213.843 77.182 212.917 77.5745 211.899 77.1677C211.115 77.3263 211.241 78.2063 210.109 78.1671C209.556 77.5377 208.794 76.9806 208.948 76.1369C209.371 75.9392 209.793 75.7416 210.216 75.544C209.289 75.4853 208.404 75.4016 207.51 75.4237C207.225 75.4404 206.922 75.6687 206.627 75.7911C206.923 76.1198 207.185 76.3677 207.404 76.6406C207.443 76.6685 207.314 76.7436 207.224 76.8466C204.967 77.1665 202.689 76.7957 200.369 76.9011C200.277 76.553 200.258 76.3135 200.195 76.0991C198.963 75.8176 197.923 76.1265 196.92 76.4633C197.325 76.4773 197.857 76.4161 197.811 76.9452C197.364 76.9562 196.913 77.0202 196.508 77.0062C196.347 77.0006 196.203 76.7834 196.051 76.672L196.721 76.4298C195.151 76.2959 193.62 76.1898 192.008 76.0809C191.204 76 190.344 76.1028 189.658 75.6015C189.766 75.2868 189.913 75.0001 190.017 74.7383C187.639 74.5764 185.314 74.2836 183.091 75.1353C182.421 75.3774 181.442 75.4496 180.904 75.1126C180.132 74.6613 179.353 74.767 178.464 74.7362C176.89 74.6552 175.226 74.6771 173.77 74.1756C173.298 74.0001 172.647 74.0306 172.081 74.011C171.354 73.9858 170.579 74.0386 169.813 73.9856C168.001 73.8432 166.27 73.7037 164.511 73.4305C162.713 73.1294 160.806 73.143 158.923 72.892C155.76 72.4375 152.536 72.2197 149.368 71.8182C147.123 71.5282 144.93 71.1073 142.737 70.6864C140.268 70.1764 137.889 69.5633 135.506 69.0031C134.354 68.7245 133.203 68.4458 132.203 67.8274C132.345 67.5935 132.482 67.4126 132.624 67.1787C131.735 67.1479 130.841 67.17 129.709 67.1308C130.099 66.8524 130.279 66.6464 130.445 66.5991C132.844 66.0454 135.248 65.4387 137.681 64.9658C139.948 64.5402 142.324 64.251 144.62 63.959C146.383 63.7282 148.242 63.7926 149.733 62.9686C150.032 62.7932 150.674 62.8685 151.083 62.8296C152.509 62.7464 153.935 62.6631 155.327 62.499C155.941 62.4407 156.572 62.1707 157.08 61.9229C157.716 61.6 157.23 61.1321 157.267 60.7088C157.276 60.603 157.447 60.5028 157.67 60.2717C158.478 60.2997 159.405 60.3584 160.337 60.3641C160.201 60.9962 160.277 61.0519 161.1 60.9212C162.223 61.5173 163.427 61.6651 164.757 61.2866C165.17 61.1948 165.579 61.1559 165.992 61.0641C167.096 61.4207 168.205 61.7245 169.474 61.5827C169.868 61.2514 169.525 61.0007 169.177 60.8029C168.677 60.4937 169.099 60.2961 169.284 60.0371C168.927 59.9452 168.57 59.8532 168.214 59.7613C168.256 59.7362 168.299 59.7112 168.38 59.714C170.77 59.2661 170.889 59.2967 172.357 60.5946C172.543 60.7868 172.843 61.0625 173.167 61.0737C174.888 61.3191 176.639 61.6981 178.368 60.9355C180.58 61.5958 182.943 61.4654 185.282 61.5995C185.999 61.2794 186.756 61.4382 187.479 61.5163C189.724 61.8063 191.968 62.0963 194.175 62.3585C195.379 62.5063 196.719 62.4731 197.785 62.8019C200.036 63.4901 202.442 63.7858 204.944 63.9254C205.224 63.9617 205.51 63.945 205.786 64.0342C209.505 64.6141 213.187 65.1661 216.902 65.7989C222.733 66.7969 228.376 68.1067 232.834 70.9144C233.024 71.0537 233.305 71.0899 233.5 71.1763C233.533 72.6633 232.736 73.4317 230.807 73.7098ZM229.628 58.8368C229.462 58.8841 229.296 58.9314 229.134 58.9258C229.101 58.8451 229.11 58.7392 229.076 58.6585C229.238 58.6641 229.4 58.6697 229.604 58.6502C229.638 58.731 229.671 58.8117 229.628 58.8368ZM240.376 62.9767C240.176 62.9433 239.981 62.8569 239.781 62.8235C239.824 62.7984 239.909 62.7483 239.994 62.6982C240.194 62.7317 240.432 62.793 240.632 62.8264C240.547 62.8765 240.414 63.0046 240.376 62.9767ZM244.508 59.7501C244.346 59.7445 244.184 59.7389 244.023 59.7333C244.023 59.7333 243.989 59.6525 243.994 59.5996C244.117 59.5774 244.322 59.5579 244.445 59.5357C244.441 59.5886 244.474 59.6693 244.508 59.7501ZM255.622 59.2063C255.532 59.3093 255.48 59.4402 255.356 59.4625C255.109 59.507 254.781 59.5487 254.539 59.5403C254.339 59.5068 254.153 59.3146 254.043 59.1782C254.005 59.1503 254.266 58.9471 254.39 58.9248C254.756 58.911 255.117 58.95 255.398 58.9863C255.55 59.0977 255.665 59.1813 255.622 59.2063ZM259.771 58.5805C259.348 58.7782 258.926 58.9758 258.427 59.1177C258.303 59.14 258.065 59.0787 257.951 58.9951C257.875 58.9394 257.936 58.7027 258.017 58.7055C258.477 58.5357 258.972 58.4467 259.47 58.3048C259.623 58.4162 259.656 58.497 259.771 58.5805ZM256.855 51.5543C257.485 52.2395 258.452 52.7771 259.29 53.3898C259.747 53.7241 260.209 54.0054 260.624 54.3647C261.411 55.1084 261.166 56.0551 259.836 56.4336C258.753 56.7675 257.694 57.2881 256.338 57.0288C255.939 56.9619 255.402 57.076 254.946 57.1929C253.872 57.421 252.832 57.7299 251.753 58.011C251.431 58.4509 251.109 58.8908 250.744 59.3558C249.846 59.4308 248.986 59.5337 248.168 59.6115C247.876 60.6362 247.667 60.7086 246.296 60.157C246.75 59.1379 248.719 59.3387 249.538 58.3058C247.704 58.428 246.111 58.5585 244.523 58.6362C242.612 58.7027 240.692 58.875 238.838 58.7577C236.74 58.632 234.747 58.2446 232.58 58.4614C232.171 58.5003 231.657 58.3499 231.177 58.2801C230.335 58.1714 229.536 58.0376 228.651 57.9539C224.704 57.658 220.696 57.5988 216.768 57.0913C214.442 56.7985 212.073 56.5307 209.748 56.2379C208.625 56.0929 207.545 55.9228 206.418 55.8307C200.907 55.348 195.593 54.4476 190.204 53.4915C187.45 52.9981 184.705 52.3989 182.036 51.8554C179.049 51.2478 175.976 50.6903 173.409 49.4339C172.905 49.1777 172.182 49.0996 171.592 48.8934C169.893 48.3835 168.156 47.8457 166.376 47.333C166.494 46.9126 166.603 46.5979 166.668 46.3083C166.781 45.9408 166.89 45.6261 166.956 45.3365C166.489 45.1081 166.218 44.9661 165.908 44.7961C167.234 44.4706 167.276 44.4455 168.1 44.7659C169.195 45.2284 170.308 45.4792 171.577 45.3374C172.437 45.2345 172.631 44.8698 172.349 44.3824C172.751 43.4942 173.681 43.0488 175.094 43.1242C175.417 43.1354 175.736 43.1995 176.097 43.2386C176.529 42.9351 176.985 42.8183 177.613 43.0523C177.927 43.1693 178.441 43.3198 178.612 43.2195C179.837 42.6517 180.665 42.9192 181.585 43.5348C182.237 43.9554 182.765 43.9471 183.134 43.4292C183.636 42.7833 184.448 42.3072 185.29 42.416C186.331 42.5582 187.029 41.9986 187.837 42.0266C188.38 42.3107 188.808 42.5113 188.965 42.5698C191.194 42.1163 193.018 41.6488 194.927 42.5375C195.513 42.7966 196.016 42.6017 196.41 42.2704C196.595 42.0115 196.818 41.7804 197.002 41.5215C198.291 41.6192 199.542 41.689 200.83 41.7867C202.119 41.8844 203.437 42.1158 204.733 41.6565C204.942 41.5842 205.389 41.5731 205.503 41.6567C206.385 42.2444 207.325 41.6932 208.176 41.6962C209.759 41.6714 211.412 41.3041 212.755 42.1732C212.908 42.2846 213.431 42.3292 213.559 42.2541C214.452 41.7808 215.371 42.3964 216.359 42.2184C216.322 40.7843 214.249 40.8452 213.04 40.2991C214.042 39.9624 214.793 39.723 215.863 39.9989C217.176 40.2832 217.397 41.0072 217.708 41.6283C220.87 41.6316 223.61 42.2837 226.422 43.0445C226.849 42.7939 227.2 42.4877 227.699 42.3457C228.16 42.176 228.768 42.1705 229.262 42.0815C229.644 42.36 230.072 42.5606 230.723 42.5301C230.342 42.2515 229.914 42.051 229.343 42.0843C228.767 41.7194 228.134 41.5383 227.317 41.6161C227.031 41.6327 226.679 41.4879 226.28 41.421C227.717 40.2767 227.674 40.3018 229.202 40.9119C230.73 41.522 232.353 41.9762 234.235 41.7761C234.848 41.7177 235.571 41.7958 235.792 42.5199C235.021 42.5197 234.332 42.5224 233.6 42.5501C232.749 42.5472 231.94 42.5192 231.089 42.5162C231.638 43.1986 232.509 43.441 233.589 43.611C236.828 44.1212 240.015 44.7623 242.786 45.9992C244.215 45.4119 245.371 45.6376 246.447 46.3117C247.062 46.7045 247.724 47.0192 248.466 47.3368C250.028 48.0277 251.674 48.6685 253.278 49.3343C254.806 49.9444 255.964 50.6213 256.855 51.5543ZM219.337 37.8108C219.585 37.7663 219.836 37.6689 219.874 37.6967C220.027 37.8081 220.137 37.9446 220.284 38.1089C220.118 38.1562 219.909 38.2286 219.79 38.198C219.638 38.0865 219.528 37.9501 219.337 37.8108ZM240.109 42.749C240.152 42.7239 240.242 42.6209 240.28 42.6488C240.399 42.6794 240.513 42.763 240.632 42.7936C240.59 42.8187 240.542 42.8966 240.461 42.8938C240.342 42.8632 240.228 42.7796 240.109 42.749ZM244.196 38.6452L244.086 38.5087L244.324 38.57L244.196 38.6452ZM246.302 38.665C246.221 38.6622 246.14 38.6594 246.06 38.6566C246.145 38.6065 246.235 38.5035 246.316 38.5063C246.478 38.5119 246.597 38.5426 246.754 38.6011C246.592 38.5955 246.426 38.6428 246.302 38.665ZM246.963 38.5287C246.963 38.5287 246.963 38.5287 247.048 38.4786C247.091 38.4535 247.172 38.4563 247.252 38.4591L246.963 38.5287ZM263.904 40.8932C263.743 40.8876 263.496 40.9321 263.458 40.9042C263.234 40.6842 263.014 40.4113 262.79 40.1912C263.142 40.3361 263.537 40.4559 263.889 40.6008C263.97 40.6036 263.914 40.7873 263.904 40.8932ZM302.402 39.6527C302.843 39.2434 303.241 38.8592 303.644 38.422C303.975 39.2826 303.804 39.3828 302.402 39.6527ZM305.823 37.1443C305.178 37.573 304.413 37.9711 303.649 38.3691C302.156 38.2909 300.759 38.5079 299.158 39.1954C300.438 39.3989 301.318 39.5355 302.279 39.6749C302.027 39.7723 301.818 39.8447 301.609 39.917C298.497 40.738 295.155 40.9406 292.039 41.8144C291.374 42.0037 290.532 41.8949 289.762 41.8948C287.404 41.9723 285.035 41.7046 282.688 42.1274C282.441 42.1719 282.117 42.1607 281.884 42.0465C279.609 41.1717 276.764 42.1876 274.546 41.129C274.507 41.1012 274.384 41.1234 274.26 41.1457C273.081 41.1844 271.945 41.1982 270.804 41.2648C270.6 41.2842 270.438 41.2786 270.234 41.2981C269.582 41.3286 268.889 41.3842 268.342 41.6041C267.246 42.0967 266.417 41.8293 265.28 41.3919C265.517 41.0021 265.753 40.6123 266.028 40.2503C265.509 40.1527 264.905 40.1053 264.392 39.9548C263.682 39.718 263.146 39.8321 262.59 40.1578C260.406 39.6311 257.92 39.7838 255.935 38.8394C255.664 38.6974 255.003 38.8337 254.552 38.8977C254.019 38.9588 253.482 39.0729 253.193 39.1425C252.298 38.7135 251.73 38.2427 250.969 38.1368C249.409 37.897 247.764 37.7074 246.223 37.7071C244.887 37.6874 243.731 37.4616 242.76 36.9769C241.318 36.3167 239.677 36.0741 237.993 35.8566C237.351 35.7813 236.666 35.731 236.029 35.6028C233.878 35.1569 231.695 34.6302 229.54 34.2372C222.914 33.0525 216.486 31.4501 210.243 29.5889C204.119 27.7582 198.094 25.7188 192.424 23.3202C192.191 23.2059 192.001 23.0667 191.853 22.9024C191.777 22.8467 191.914 22.6657 192.013 22.4568C192.731 22.5879 193.412 22.691 194.049 22.8192C194.4 22.513 194.666 22.2568 194.841 22.1037C196.519 21.923 197.992 21.7618 199.466 21.6005C200.053 20.9045 201.124 21.1803 201.984 21.0775C203.866 20.8773 205.565 21.3872 207.339 21.5017C207.5 21.5073 207.671 21.4071 207.837 21.3598C207.903 21.0702 207.969 20.7806 208.039 20.4381C209.176 20.4244 210.193 20.38 211.167 20.3607C211.497 20.7701 211.754 21.0709 212.012 21.3717C215.35 21.673 215.35 21.673 217.047 21.2807C216.232 20.8545 214.968 20.9434 214.134 20.2777C215.56 20.1944 216.649 20.2587 217.71 20.6403C218.814 20.997 219.786 21.4817 221.198 21.5571C221.197 21.106 221.186 20.7607 221.147 20.2818C221.975 20.5492 222.655 20.6524 223.16 20.9087C224.559 21.5939 226.138 21.6221 227.802 21.6001C228.938 21.5864 230.117 21.5476 231.206 21.6119C233.669 21.7237 236.08 21.9664 238.6 21.8945C240.183 21.8697 241.829 22.0593 243.432 22.274C244.074 22.3493 244.574 22.6585 245.164 22.8647C245.971 22.4416 246.822 22.4445 247.551 22.9208C247.18 22.9876 246.767 23.0794 246.396 23.1462C246.905 23.3496 247.281 23.2299 247.589 22.9487C249.97 22.6066 252.709 22.8076 255.169 23.4235C255.564 23.5433 255.959 23.6631 256.315 23.755C256.52 23.7356 256.682 23.7412 256.886 23.7217C258.178 23.3154 259.395 23.3045 260.69 23.8004C261.318 24.0344 262.112 24.2211 262.802 24.2185C265.036 24.1632 267.058 24.6843 269.123 25.1803C270.037 25.3977 270.945 25.668 271.839 25.6459C272.448 25.6404 272.971 25.685 273.537 25.7046C275.31 25.8191 277.066 26.1453 278.778 26.4964C280.372 26.817 281.799 27.1848 282.943 28.0204C283.705 28.5775 284.647 28.9285 285.95 28.8675C286.558 28.862 287.187 29.0961 287.781 29.2493C288.733 29.4945 289.723 29.7676 290.674 30.0128L290.712 30.0407C291.664 30.2859 292.658 30.5061 293.52 30.8543C296.661 32.0244 299.76 33.2196 302.811 34.4928C303.829 34.8995 304.663 35.5652 305.506 36.1251C306.292 36.4176 306.255 36.8408 305.823 37.1443Z" fill="#DEE2E6"/>
</svg>
